<svg width="44" height="44" viewBox="0 0 44 44" fill="none" xmlns="http://www.w3.org/2000/svg">
<path fill-rule="evenodd" clip-rule="evenodd" d="M37.4781 12.2551C40.8623 12.2551 43.6057 9.51167 43.6057 6.12752C43.6057 2.74337 40.8623 -3.05176e-05 37.4781 -3.05176e-05C34.094 -3.05176e-05 31.3506 2.74337 31.3506 6.12752C31.3506 9.51167 34.094 12.2551 37.4781 12.2551Z" fill="white"/>
<path fill-rule="evenodd" clip-rule="evenodd" d="M37.4781 28.2151C40.8623 28.2151 43.6057 25.3441 43.6057 21.8026C43.6057 18.261 40.8623 15.39 37.4781 15.39C34.094 15.39 31.3506 18.261 31.3506 21.8026C31.3506 25.3441 34.094 28.2151 37.4781 28.2151Z" fill="white"/>
<path fill-rule="evenodd" clip-rule="evenodd" d="M37.4781 43.6053C40.8623 43.6053 43.6057 40.8619 43.6057 37.4777C43.6057 34.0936 40.8623 31.3502 37.4781 31.3502C34.094 31.3502 31.3506 34.0936 31.3506 37.4777C31.3506 40.8619 34.094 43.6053 37.4781 43.6053Z" fill="white"/>
<path fill-rule="evenodd" clip-rule="evenodd" d="M21.8032 28.2151C25.3447 28.2151 28.2157 25.3441 28.2157 21.8026C28.2157 18.261 25.3447 15.39 21.8032 15.39C18.2616 15.39 15.3906 18.261 15.3906 21.8026C15.3906 25.3441 18.2616 28.2151 21.8032 28.2151Z" fill="white"/>
<path fill-rule="evenodd" clip-rule="evenodd" d="M21.8032 43.6053C25.3447 43.6053 28.2157 40.8619 28.2157 37.4777C28.2157 34.0936 25.3447 31.3502 21.8032 31.3502C18.2616 31.3502 15.3906 34.0936 15.3906 37.4777C15.3906 40.8619 18.2616 43.6053 21.8032 43.6053Z" fill="white"/>
<path fill-rule="evenodd" clip-rule="evenodd" d="M6.12755 43.6053C9.5117 43.6053 12.2551 40.8619 12.2551 37.4777C12.2551 34.0936 9.5117 31.3502 6.12755 31.3502C2.7434 31.3502 0 34.0936 0 37.4777C0 40.8619 2.7434 43.6053 6.12755 43.6053Z" fill="white"/>
</svg>
