<svg width="233" height="44" viewBox="0 0 233 44" fill="none" xmlns="http://www.w3.org/2000/svg">
<path d="M92.1963 24.7559V21.7314H80.915V25.8135H86.7412L86.7227 26.2402C86.6113 29.5615 84.0693 31.8066 80.4141 31.8066C75.9609 31.8066 73.1406 28.2627 73.1406 22.4551C73.1406 16.7588 75.7939 13.4004 80.21 13.4004C83.2344 13.4004 85.5166 15.0703 86.333 17.8721H91.9551C91.1572 12.4541 86.4443 8.76172 80.1914 8.76172C72.3242 8.76172 67.4258 13.957 67.4258 22.5293C67.4258 31.2314 72.3242 36.4453 80.3213 36.4453C87.7803 36.4453 92.1963 32.0479 92.1963 24.7559ZM102.511 26.2031H107.001L111.992 36H118.338L112.697 25.3682C115.777 24.1621 117.559 21.1934 117.559 17.7607C117.559 12.4727 114.033 9.22559 107.873 9.22559H96.9072V36H102.511V26.2031ZM102.511 13.6045H107.279C110.062 13.6045 111.807 15.2744 111.807 17.8721C111.807 20.5254 110.155 22.1396 107.335 22.1396H102.511V13.6045ZM122.251 9.22559V36H127.854V27.5576H132.864C138.505 27.5576 142.42 23.8838 142.42 18.3916C142.42 12.8809 138.635 9.22559 133.143 9.22559H122.251ZM127.854 13.6602H131.658C134.868 13.6602 136.724 15.3672 136.724 18.4102C136.724 21.4717 134.85 23.1787 131.64 23.1787H127.854V13.6602ZM164.053 31.3613H152.345V9.22559H146.741V36H164.053V31.3613ZM173.811 36.3154C176.297 36.3154 178.765 35.0723 179.878 32.957H179.989V36H185.222V22.3252C185.222 18.3174 181.9 15.6826 176.798 15.6826C171.528 15.6826 168.244 18.3359 168.04 22.1953H172.994C173.254 20.7295 174.534 19.7275 176.557 19.7275C178.598 19.7275 179.896 20.8037 179.896 22.6592V23.9766L174.887 24.2734C169.933 24.5703 167.149 26.667 167.149 30.2852C167.149 33.8662 170.025 36.3154 173.811 36.3154ZM175.592 32.4004C173.755 32.4004 172.53 31.4727 172.53 29.9883C172.53 28.5781 173.681 27.6689 175.703 27.5205L179.896 27.2607V28.708C179.896 30.8604 177.948 32.4004 175.592 32.4004ZM201.548 36.3154C206.558 36.3154 209.619 32.4561 209.619 26.0547C209.619 19.6348 206.539 15.7939 201.529 15.7939C198.69 15.7939 196.482 17.2041 195.388 19.5605H195.276V9.22559H189.858V36H195.202V32.5859H195.313C196.408 34.9053 198.635 36.3154 201.548 36.3154ZM199.674 20.1357C202.364 20.1357 204.071 22.4365 204.071 26.0547C204.071 29.6914 202.383 31.9551 199.674 31.9551C197.039 31.9551 195.258 29.6543 195.258 26.0547C195.258 22.4922 197.058 20.1357 199.674 20.1357ZM213.105 21.9541C213.105 24.9414 215.054 26.8711 218.895 27.6875L222.29 28.3926C224.238 28.8379 224.925 29.4316 224.925 30.4893C224.925 31.7881 223.663 32.623 221.622 32.623C219.47 32.623 218.227 31.6953 217.893 29.9512H212.604C212.957 33.8662 216.13 36.4268 221.622 36.4268C226.743 36.4268 230.324 33.8477 230.324 29.9326C230.324 27.0195 228.617 25.3867 224.461 24.5146L221.065 23.791C219.062 23.3643 218.319 22.6777 218.319 21.6572C218.319 20.3398 219.562 19.4863 221.437 19.4863C223.44 19.4863 224.646 20.5811 224.813 22.1953H229.805C229.693 18.2988 226.539 15.6826 221.437 15.6826C216.371 15.6826 213.105 18.1689 213.105 21.9541Z" fill="white"/>
<path fill-rule="evenodd" clip-rule="evenodd" d="M37.4781 12.2551C40.8623 12.2551 43.6057 9.51167 43.6057 6.12752C43.6057 2.74337 40.8623 -3.05176e-05 37.4781 -3.05176e-05C34.094 -3.05176e-05 31.3506 2.74337 31.3506 6.12752C31.3506 9.51167 34.094 12.2551 37.4781 12.2551Z" fill="white"/>
<path fill-rule="evenodd" clip-rule="evenodd" d="M37.4781 28.2151C40.8623 28.2151 43.6057 25.3441 43.6057 21.8026C43.6057 18.261 40.8623 15.39 37.4781 15.39C34.094 15.39 31.3506 18.261 31.3506 21.8026C31.3506 25.3441 34.094 28.2151 37.4781 28.2151Z" fill="white"/>
<path fill-rule="evenodd" clip-rule="evenodd" d="M37.4781 43.6053C40.8623 43.6053 43.6057 40.8619 43.6057 37.4777C43.6057 34.0936 40.8623 31.3502 37.4781 31.3502C34.094 31.3502 31.3506 34.0936 31.3506 37.4777C31.3506 40.8619 34.094 43.6053 37.4781 43.6053Z" fill="white"/>
<path fill-rule="evenodd" clip-rule="evenodd" d="M21.8032 28.2151C25.3447 28.2151 28.2157 25.3441 28.2157 21.8026C28.2157 18.261 25.3447 15.39 21.8032 15.39C18.2616 15.39 15.3906 18.261 15.3906 21.8026C15.3906 25.3441 18.2616 28.2151 21.8032 28.2151Z" fill="white"/>
<path fill-rule="evenodd" clip-rule="evenodd" d="M21.8032 43.6053C25.3447 43.6053 28.2157 40.8619 28.2157 37.4777C28.2157 34.0936 25.3447 31.3502 21.8032 31.3502C18.2616 31.3502 15.3906 34.0936 15.3906 37.4777C15.3906 40.8619 18.2616 43.6053 21.8032 43.6053Z" fill="white"/>
<path fill-rule="evenodd" clip-rule="evenodd" d="M6.12755 43.6053C9.5117 43.6053 12.2551 40.8619 12.2551 37.4777C12.2551 34.0936 9.5117 31.3502 6.12755 31.3502C2.7434 31.3502 0 34.0936 0 37.4777C0 40.8619 2.7434 43.6053 6.12755 43.6053Z" fill="white"/>
</svg>
