<svg width="28" height="28" viewBox="0 0 28 28" fill="none" xmlns="http://www.w3.org/2000/svg"><path d="M18.288 19.63l1.312-1.313-4.638-4.667V7.787h-1.75v6.563l5.076 5.28zM14 25.666c-1.594 0-3.101-.307-4.52-.92a11.834 11.834 0 01-3.72-2.507 11.834 11.834 0 01-2.508-3.72A11.288 11.288 0 012.333 14c0-1.595.307-3.101.92-4.52A11.834 11.834 0 015.76 5.76c1.06-1.06 2.3-1.895 3.72-2.508A11.289 11.289 0 0114 2.333c1.594 0 3.101.307 4.52.92 1.42.612 2.66 1.448 3.72 2.507 1.06 1.06 1.895 2.3 2.508 3.72a11.29 11.29 0 01.919 4.52c0 1.594-.307 3.101-.92 4.52a11.834 11.834 0 01-2.507 3.72 11.833 11.833 0 01-3.72 2.508 11.293 11.293 0 01-4.52.919zm0-1.75c2.722 0 5.056-.973 7-2.917 1.944-1.945 2.917-4.278 2.917-7 0-2.722-.973-5.056-2.917-7s-4.278-2.917-7-2.917c-2.722 0-5.056.973-7 2.917s-2.917 4.278-2.917 7c0 2.722.973 5.055 2.917 7 1.944 1.944 4.278 2.917 7 2.917z" fill="#fff"/></svg>