<svg width="28" height="28" viewBox="0 0 28 28" fill="none" xmlns="http://www.w3.org/2000/svg"><path d="M7.875 16.362h7.408a.85.85 0 00.846-.875.85.85 0 00-.248-.627.85.85 0 00-.627-.248H7.846a.85.85 0 00-.846.875.85.85 0 00.248.627.85.85 0 00.627.248zm0-3.791h12.28a.85.85 0 00.846-.875.85.85 0 00-.249-.627.85.85 0 00-.627-.248H7.845a.85.85 0 00-.846.875.85.85 0 00.876.875zm0-3.792h12.28A.85.85 0 0021 7.904a.85.85 0 00-.249-.627.85.85 0 00-.627-.248H7.845A.85.85 0 007 7.904a.85.85 0 00.249.627.85.85 0 00.627.248zM2.333 23.567V4.083c0-.447.175-.85.525-1.21.35-.36.759-.54 1.225-.54h19.834c.447 0 .85.18 1.21.54.36.36.54.763.54 1.21V19.25c0 .447-.18.85-.54 1.21-.36.36-.763.54-1.21.54H7l-3.18 3.18c-.271.271-.587.335-.947.189-.36-.146-.54-.413-.54-.802zm1.75-2.13l2.188-2.187h17.646V4.083H4.083v17.354z" fill="#fff"/></svg>