<svg width="24" height="14" viewBox="0 0 24 14" fill="none" xmlns="http://www.w3.org/2000/svg"><path d="M17.22 13.388a.79.79 0 01-.612.248.895.895 0 01-.612-.278.856.856 0 01-.263-.627c0-.243.088-.452.263-.627l5.162-5.162-5.133-5.134a.807.807 0 01-.248-.627.91.91 0 01.277-.627.856.856 0 01.627-.262c.243 0 .452.087.627.262l5.746 5.775a.84.84 0 01.263.613.84.84 0 01-.263.612l-5.833 5.834zM6.72 13.3L.947 7.554a.84.84 0 01-.263-.612.84.84 0 01.263-.613L6.779.496a.856.856 0 01.627-.263c.243 0 .452.088.627.263a.856.856 0 01.263.627.856.856 0 01-.263.627L2.842 6.942l5.133 5.133a.84.84 0 01.262.613.84.84 0 01-.262.612.856.856 0 01-.627.263.856.856 0 01-.627-.263z" fill="#fff"/></svg>