<svg width="24" height="17" viewBox="0 0 24 17" fill="none" xmlns="http://www.w3.org/2000/svg"><path d="M1.208 5.208a.85.85 0 01-.627-.248.85.85 0 01-.248-.627.85.85 0 01.248-.627.85.85 0 01.627-.248h8.75a.85.85 0 01.627.248.85.85 0 01.248.627.85.85 0 01-.248.627.85.85 0 01-.627.248h-8.75zm0 9.334a.85.85 0 01-.627-.248.85.85 0 01-.248-.627.85.85 0 01.248-.627.85.85 0 01.627-.248h8.75a.85.85 0 01.627.248.85.85 0 01.248.627.85.85 0 01-.248.627.85.85 0 01-.627.248h-8.75zm15.4-7.73l-2.916-2.916a.84.84 0 01-.263-.613.84.84 0 01.263-.612.79.79 0 01.612-.248c.233.01.438.092.613.248l2.304 2.275L21.829.338a.79.79 0 01.613-.248c.233.01.437.102.612.277a.84.84 0 01.263.612.84.84 0 01-.263.613l-5.22 5.22a.84.84 0 01-.613.263.84.84 0 01-.613-.262zm0 9.334l-2.916-2.917a.84.84 0 01-.263-.612.84.84 0 01.263-.613.79.79 0 01.612-.248c.233.01.438.093.613.248l2.304 2.275 4.608-4.608a.79.79 0 01.613-.248c.233.01.437.102.612.277a.84.84 0 01.263.613.84.84 0 01-.263.612l-5.22 5.22a.84.84 0 01-.613.263.84.84 0 01-.613-.262z" fill="#fff"/></svg>