<svg width="21" height="24" viewBox="0 0 21 24" fill="none" xmlns="http://www.w3.org/2000/svg"><path d="M12.02 23.667l-.29-3.209h-1.168c-2.78 0-5.152-.982-7.116-2.946C1.482 15.55.5 13.176.5 10.396c0-2.78.987-5.153 2.96-7.117C5.434 1.315 7.82.333 10.62.333c1.381 0 2.66.248 3.836.744a9.323 9.323 0 013.077 2.085 9.725 9.725 0 012.057 3.165c.495 1.215.743 2.542.743 3.981 0 2.606-.734 5.119-2.202 7.54-1.468 2.42-3.505 4.36-6.11 5.819zm-1.4-6.505c.312 0 .574-.107.788-.32a1.07 1.07 0 00.321-.788 1.07 1.07 0 00-.32-.787 1.07 1.07 0 00-.788-.321 1.07 1.07 0 00-.788.32 1.07 1.07 0 00-.32.788c0 .311.106.574.32.788.214.213.477.32.788.32zm-.057-3.966a.725.725 0 00.51-.204.921.921 0 00.277-.525c.058-.273.18-.535.365-.788.184-.253.471-.574.86-.962.525-.525.894-1.007 1.108-1.444.214-.438.321-.91.321-1.415 0-.875-.296-1.594-.89-2.158-.593-.564-1.385-.846-2.377-.846-.68 0-1.307.15-1.88.452A3.624 3.624 0 007.47 6.575a.542.542 0 00-.059.54.812.812 0 00.438.422c.156.059.32.059.496 0a.89.89 0 00.437-.32 1.94 1.94 0 01.802-.686 2.542 2.542 0 011.065-.219c.583 0 1.04.141 1.37.423.331.282.497.657.497 1.123 0 .37-.107.744-.321 1.123-.214.38-.593.85-1.138 1.415-.408.427-.7.782-.875 1.064a2.32 2.32 0 00-.32 1.007.626.626 0 00.175.51.686.686 0 00.524.219zm2.916 5.512v1.809a14.699 14.699 0 003.748-4.74c.904-1.818 1.356-3.641 1.356-5.469 0-2.41-.753-4.384-2.26-5.92-1.507-1.537-3.408-2.305-5.702-2.305-2.334 0-4.312.812-5.936 2.436C3.062 6.142 2.25 8.1 2.25 10.396c0 2.294.812 4.253 2.435 5.877 1.624 1.623 3.583 2.435 5.878 2.435h2.916z" fill="#fff"/></svg>