<svg width="450" height="263" viewBox="0 0 450 263" fill="none" xmlns="http://www.w3.org/2000/svg"><path d="M86.137 141.703l-2.164-8.117 2.666-.714c.634-.17 1.183-.205 1.648-.106.465.099.842.3 1.13.604.296.302.503.677.623 1.125.117.441.127.865.028 1.272-.098.407-.323.774-.675 1.1-.354.319-.852.564-1.493.736l-1.692.453.902 3.386-.973.261zm-.149-4.47l1.67-.447c.648-.174 1.072-.433 1.27-.776.205-.353.243-.769.115-1.248-.13-.487-.37-.828-.72-1.024-.345-.206-.842-.222-1.49-.048l-1.67.447.825 3.096zm6.734 2.705l-.183-.684a31.18 31.18 0 001.204-1.726 16.8 16.8 0 00.958-1.673 6.501 6.501 0 00.564-1.518c.112-.477.117-.909.014-1.296a2.171 2.171 0 00-.364-.759 1.25 1.25 0 00-.62-.468c-.258-.096-.573-.095-.944.005-.355.095-.63.256-.827.482a1.533 1.533 0 00-.378.772c-.046.294-.029.592.052.893l-.94.252c-.141-.533-.15-1.019-.028-1.458.121-.447.348-.822.681-1.127a2.898 2.898 0 011.23-.652c.718-.193 1.36-.145 1.925.142.57.278.963.819 1.178 1.623.127.479.135.986.02 1.522a7.619 7.619 0 01-.553 1.602 13.12 13.12 0 01-.87 1.537c-.316.491-.616.936-.898 1.335l3.917-1.05.217.811-5.355 1.435zm6.76-1.811l-2.163-8.117 5.019-1.345.213.8-4.045 1.084.754 2.83 3.697-.991.21.788-3.697.991.773 2.899 4.045-1.084.213.8-5.019 1.345zM46.913 22.952c-.796.214-1.53.224-2.203.031a3.738 3.738 0 01-1.725-1.115c-.486-.549-.84-1.24-1.063-2.076-.22-.827-.255-1.596-.105-2.307.147-.719.46-1.332.937-1.841.485-.511 1.125-.873 1.92-1.087.928-.248 1.741-.226 2.44.067.705.284 1.245.802 1.62 1.554l-1.079.29a2.195 2.195 0 00-1.086-1.002c-.461-.207-1.016-.224-1.665-.05-.58.155-1.05.426-1.41.812-.363.379-.597.852-.703 1.418-.1.557-.057 1.183.128 1.88.186.695.461 1.263.827 1.703.371.43.81.723 1.314.878.503.147 1.044.143 1.624-.013.65-.174 1.124-.458 1.424-.853.306-.405.455-.872.447-1.4l1.078-.289c.046.825-.166 1.536-.636 2.134-.462.596-1.157 1.018-2.084 1.266zm6.824-1.828c-.68.182-1.276.122-1.787-.18-.513-.31-.884-.894-1.113-1.752l-.896-3.362.974-.261.868 3.258c.32 1.198.97 1.666 1.951 1.403.503-.135.869-.423 1.099-.866.235-.452.264-1.01.087-1.675l-.794-2.98.973-.261 1.533 5.75-.88.237-.345-1.013c-.081.41-.272.768-.571 1.072a2.335 2.335 0 01-1.1.63zm6.737-1.805c-.688.184-1.306.163-1.854-.063-.549-.225-.941-.625-1.177-1.2l.997-.267c.142.285.37.505.685.661.32.146.7.16 1.141.042.41-.11.689-.275.837-.497a.856.856 0 00.122-.704c-.092-.348-.282-.546-.568-.593-.278-.05-.657-.06-1.138-.03a6.173 6.173 0 01-.998-.019 2.215 2.215 0 01-.907-.279c-.266-.16-.445-.415-.538-.762-.134-.503-.058-.962.228-1.379.293-.426.76-.725 1.4-.896.611-.164 1.15-.143 1.62.063.474.196.817.567 1.03 1.115l-.962.258a1.007 1.007 0 00-.565-.582c-.254-.114-.559-.123-.914-.028-.348.093-.6.239-.753.438a.73.73 0 00-.124.654c.062.232.23.381.505.449.282.065.644.088 1.086.069a7.962 7.962 0 011.086.02c.353.02.66.117.921.287.267.16.455.45.567.867a1.64 1.64 0 01-.248 1.445c-.306.438-.799.748-1.479.93zm5.568-1.641c-.526.14-.973.124-1.342-.05-.37-.175-.643-.595-.82-1.26l-.844-3.165-.997.267-.22-.823.997-.267-.24-1.414.846-.227.368 1.38 1.693-.454.219.824-1.692.453.843 3.166c.097.363.237.59.419.683.18.084.455.077.826-.023l.602-.161.223.835-.881.236zm4.709-1.113a2.99 2.99 0 01-1.56.02 2.822 2.822 0 01-1.31-.767c-.368-.39-.634-.89-.797-1.5-.163-.611-.176-1.175-.04-1.692a2.81 2.81 0 01.75-1.331c.374-.366.832-.62 1.373-.766a2.99 2.99 0 011.56-.02c.498.131.931.392 1.3.782.375.38.644.875.806 1.486.163.61.178 1.178.044 1.703-.135.516-.39.957-.765 1.322-.366.364-.82.618-1.361.763zm-.223-.835c.332-.089.62-.253.863-.492.242-.239.41-.544.5-.917.091-.372.073-.798-.055-1.277-.127-.48-.323-.857-.588-1.135a1.8 1.8 0 00-.878-.547 1.888 1.888 0 00-.98.002c-.333.09-.62.253-.863.492s-.41.545-.5.917c-.092.372-.074.798.054 1.277.128.48.324.858.588 1.135.264.277.557.46.879.547.329.086.656.085.98-.002zm4.426-.44L73.42 9.539l.88-.237.293.817a2.02 2.02 0 01.55-.918c.263-.253.589-.431.975-.535.456-.122.87-.134 1.245-.035.382.096.712.31.99.641a2.3 2.3 0 01.604-1.043c.302-.297.658-.5 1.067-.61.688-.184 1.292-.122 1.813.186.519.3.893.879 1.121 1.737l.897 3.362-.962.258-.869-3.258c-.159-.595-.398-1.011-.718-1.249-.32-.237-.704-.296-1.152-.176-.464.125-.802.41-1.014.856-.206.436-.221.987-.044 1.652l.794 2.98-.973.26-.869-3.258c-.158-.595-.398-1.011-.718-1.248-.32-.238-.704-.296-1.152-.176-.456.122-.79.406-1.002.852-.207.437-.221.987-.044 1.652l.794 2.98-.973.26zM42.69 40.648a2.787 2.787 0 01-1.34.049 2.079 2.079 0 01-1.052-.588l.164.987-.88.236-2.226-8.348.974-.261.945 3.548c.112-.328.307-.65.588-.965.288-.317.698-.547 1.231-.69.572-.154 1.106-.156 1.6-.007.496.15.92.42 1.273.814.362.392.62.878.774 1.458.154.58.173 1.13.055 1.65-.112.51-.35.955-.713 1.334-.357.369-.821.63-1.393.783zm-.33-.818c.386-.104.703-.284.95-.54.243-.264.407-.582.49-.952.084-.37.068-.772-.047-1.205-.116-.433-.302-.789-.558-1.068a1.937 1.937 0 00-.897-.567 1.933 1.933 0 00-1.094-.005 1.937 1.937 0 00-.946.552 1.95 1.95 0 00-.494.94c-.084.37-.068.772.048 1.204.115.433.301.79.558 1.068.256.28.556.473.899.58.341.098.705.096 1.091-.007zm4.5-.448l-2.226-8.349.974-.26 2.225 8.348-.973.26zm5.226-1.252a2.99 2.99 0 01-1.56.02 2.822 2.822 0 01-1.31-.766c-.368-.39-.634-.89-.797-1.501-.162-.61-.176-1.174-.04-1.691a2.81 2.81 0 01.75-1.332 3.06 3.06 0 011.373-.765 2.99 2.99 0 011.56-.02c.498.131.932.392 1.3.781.375.38.644.876.806 1.486.163.611.178 1.179.044 1.703-.135.517-.39.958-.765 1.323-.366.363-.82.618-1.361.762zm-.223-.834c.333-.09.62-.253.863-.492.242-.24.41-.545.5-.917.092-.372.073-.798-.054-1.277-.128-.48-.324-.858-.588-1.135a1.8 1.8 0 00-.879-.547 1.888 1.888 0 00-.98.002 1.868 1.868 0 00-1.363 1.409c-.092.372-.074.798.054 1.277.128.48.324.857.588 1.134.265.277.557.46.879.548.329.085.656.085.98-.002zm7.106-1.01a3.08 3.08 0 01-1.583.027 2.91 2.91 0 01-1.313-.779c-.369-.39-.633-.886-.794-1.49-.16-.602-.177-1.16-.05-1.675a2.81 2.81 0 01.75-1.332 3.011 3.011 0 011.382-.78c.68-.182 1.3-.158 1.858.074.566.229.99.625 1.273 1.187l-.997.267a1.299 1.299 0 00-.787-.671 1.92 1.92 0 00-1.136-.02 1.877 1.877 0 00-1.351 1.407c-.091.372-.073.798.055 1.277.127.48.323.857.588 1.134.264.277.562.463.893.556.33.086.656.085.98-.002.402-.108.728-.298.978-.572a1.35 1.35 0 00.342-.999l.997-.267a2.381 2.381 0 01-.504 1.65c-.374.49-.901.826-1.581 1.008zm3.93-1.202l-2.225-8.349.974-.26 1.338 5.02 1.707-3.053 1.194-.32-1.858 3.28 3.716 2.384-1.24.332-3.426-2.275.794 2.98-.974.261zm8.102-2.022a3.08 3.08 0 01-1.582.027 2.915 2.915 0 01-1.313-.779c-.369-.39-.634-.886-.794-1.49-.161-.602-.178-1.16-.05-1.675a2.81 2.81 0 01.75-1.332 3.013 3.013 0 011.382-.78c.68-.183 1.3-.158 1.858.073.566.23.99.625 1.272 1.188l-.996.267a1.299 1.299 0 00-.788-.671 1.92 1.92 0 00-1.135-.02c-.325.088-.608.25-.85.49-.243.239-.41.544-.502.916-.09.373-.073.799.055 1.278s.324.857.588 1.134c.265.277.562.463.894.556.329.086.656.085.98-.002.402-.108.728-.298.978-.572.248-.282.362-.615.342-1l.997-.266c.039.61-.13 1.16-.504 1.65s-.902.826-1.582 1.008zm3.931-1.202l-2.225-8.349.973-.26.955 3.582c.099-.407.3-.755.604-1.043a2.4 2.4 0 011.078-.612c.665-.178 1.254-.113 1.767.197.511.302.88.882 1.11 1.74l.896 3.363-.962.258-.869-3.259c-.319-1.198-.962-1.668-1.928-1.409a1.721 1.721 0 00-1.118.884c-.245.446-.279 1.002-.102 1.667l.795 2.98-.974.26zm8.583-2.15c-.48.128-.899.153-1.259.076a1.709 1.709 0 01-.88-.46 1.805 1.805 0 01-.467-.82c-.157-.587-.053-1.1.31-1.536.365-.437.933-.76 1.705-.966l1.554-.416-.019-.07c-.134-.503-.366-.846-.697-1.03-.333-.193-.72-.23-1.16-.112a1.746 1.746 0 00-.908.553c-.22.259-.318.579-.29.96l-.997.268a1.934 1.934 0 01.136-1.167c.17-.353.418-.65.742-.895a3.035 3.035 0 011.098-.543c.803-.215 1.464-.16 1.981.165.523.316.88.829 1.069 1.54l.942 3.537-.869.233-.333-1.017c-.076.368-.241.71-.496 1.027-.25.308-.637.531-1.162.672zm-.069-.864c.37-.1.662-.281.873-.545.22-.266.357-.572.414-.918a2.43 2.43 0 00-.051-1.03l-.003-.012-1.472.395c-.572.153-.951.362-1.137.627a.944.944 0 00-.153.824c.08.301.253.516.52.643.27.118.607.123 1.009.016zm3.108-7.629a.706.706 0 01-.536-.055.707.707 0 01-.315-.437.652.652 0 01.061-.514.708.708 0 01.438-.316c.185-.05.36-.03.525.058a.63.63 0 01.32.412.686.686 0 01-.067.54.693.693 0 01-.426.312zm1.386 7.157l-1.533-5.75.974-.262 1.533 5.751-.974.261zm2.67-.715l-1.534-5.751.881-.236.333 1.016c.089-.413.28-.77.571-1.072a2.334 2.334 0 011.1-.63c.68-.182 1.276-.118 1.789.191.519.3.892.88 1.121 1.738l.897 3.362-.974.26-.869-3.257c-.32-1.198-.973-1.665-1.962-1.4-.495.133-.86.425-1.095.877-.23.443-.256.996-.08 1.661l.795 2.98-.974.261zm26.626 219.74c-.796.213-1.53.224-2.202.031a3.728 3.728 0 01-1.725-1.115c-.486-.549-.84-1.241-1.063-2.076-.22-.827-.256-1.596-.106-2.307a3.73 3.73 0 01.938-1.842c.484-.51 1.125-.873 1.921-1.086.927-.248 1.74-.226 2.439.067.705.283 1.244.801 1.619 1.554l-1.078.289a2.2 2.2 0 00-1.086-1.001c-.462-.208-1.017-.225-1.666-.051-.579.156-1.049.426-1.41.813-.363.379-.597.851-.702 1.418-.1.557-.058 1.183.128 1.879.185.696.461 1.264.827 1.704.371.43.809.723 1.314.878.503.147 1.044.142 1.624-.013.649-.174 1.123-.458 1.424-.854.306-.405.455-.871.446-1.399l1.078-.289c.046.824-.166 1.536-.636 2.134-.462.595-1.156 1.018-2.084 1.266zm4.747-1.421l-2.163-8.117 5.019-1.344.213.8-4.045 1.084.754 2.829 3.697-.991.21.789-3.697.99.773 2.899 4.045-1.084.213.8-5.019 1.345zm6.126-1.641l1.389-4.758-3.553-3.359 1.101-.295 2.859 2.713 1.036-3.756 1.089-.292-1.395 4.734 3.571 3.379-1.102.295-2.873-2.721-1.021 3.765-1.101.295z" fill="#fff" fill-opacity=".8"/><path d="M109.494 219.043l4.226-1.133-1.888-7.043 6.198-1.661 1.888 7.044 4.226-1.133-2.945-10.987-8.796-3.531-5.853 7.456 2.944 10.988zm-1.238 2.143l-3.623-13.523 7.203-9.177 10.827 4.346 3.624 13.523-7.607 2.038-1.887-7.043-2.817.755 1.887 7.043-7.607 2.038z" fill="url(#paint0_linear_243_506)"/><path d="M175.022 117.886l-2.164-8.117 1.136-.304 4.429 4.876 1.39-6.435 1.147-.307 2.164 8.116-.974.261-1.7-6.377-1.321 5.944-.73.196-4.101-4.48 1.697 6.366-.973.261zm12.378-3.168c-.549.147-1.069.154-1.56.021a2.843 2.843 0 01-1.289-.785c-.359-.384-.62-.882-.783-1.492-.161-.603-.181-1.161-.061-1.674.118-.52.356-.961.715-1.322.365-.371.829-.632 1.394-.783.556-.149 1.069-.15 1.539-.003.475.138.876.383 1.201.734a2.876 2.876 0 01.734 1.493l.077.29-4.578 1.227c.14.434.339.775.595 1.021.261.236.547.392.857.466.317.072.63.067.939-.016.402-.107.713-.29.934-.548a1.65 1.65 0 00.391-.912l.962-.258a2.715 2.715 0 01-.537 1.572c-.34.464-.85.787-1.53.969zm-1.388-5.206a2.023 2.023 0 00-1.126.762c-.281.373-.377.838-.287 1.393l3.617-.969c-.162-.511-.447-.87-.858-1.074-.411-.205-.859-.242-1.346-.112zm7.444 3.434c-.525.141-.972.125-1.342-.05-.369-.174-.642-.594-.82-1.259l-.844-3.165-.996.267-.22-.823.997-.267-.24-1.414.846-.227.368 1.38 1.692-.454.219.824-1.692.453.844 3.166c.097.363.236.591.418.683.18.084.455.076.826-.023l.603-.161.222.834-.881.236zm4.161-.965c-.479.128-.899.154-1.259.076a1.698 1.698 0 01-.88-.46 1.797 1.797 0 01-.467-.819c-.157-.587-.053-1.099.311-1.537.363-.437.932-.759 1.704-.966l1.554-.416-.019-.069c-.134-.503-.366-.846-.697-1.031-.333-.193-.719-.23-1.16-.112a1.747 1.747 0 00-.908.554c-.221.258-.318.578-.29.96l-.997.267c-.073-.428-.028-.817.136-1.167.171-.352.418-.65.742-.894a3.039 3.039 0 011.098-.543c.803-.215 1.464-.16 1.981.165.523.315.879.829 1.069 1.54l.942 3.536-.869.233-.333-1.016c-.076.368-.241.71-.496 1.027-.249.307-.637.531-1.162.672zm-.069-.864c.371-.099.662-.281.873-.544.219-.266.357-.572.414-.919a2.454 2.454 0 00-.051-1.03l-.004-.011-1.472.394c-.571.154-.95.363-1.136.628a.94.94 0 00-.153.824c.08.301.253.516.519.643.271.118.608.123 1.01.015zm5.832-.83l-3.712-5.167 1.02-.273 3.01 4.349.456-5.278.997-.267-.646 6.335-1.125.301zm6.715-1.65c-.548.147-1.068.154-1.559.021a2.86 2.86 0 01-1.29-.785c-.359-.385-.62-.882-.783-1.493-.16-.603-.181-1.16-.061-1.673.118-.52.357-.961.716-1.322.365-.371.829-.632 1.393-.783.556-.15 1.07-.15 1.539-.003.476.138.876.382 1.202.734a2.88 2.88 0 01.733 1.493l.078.29-4.579 1.227c.141.434.339.775.595 1.021.262.236.547.391.857.466.317.072.631.067.94-.016.402-.108.713-.291.934-.549.221-.257.351-.562.39-.912l.962-.257a2.703 2.703 0 01-.537 1.572c-.34.464-.85.787-1.53.969zm-1.388-5.206a2.025 2.025 0 00-1.126.761c-.281.374-.376.838-.286 1.394l3.616-.969c-.161-.512-.447-.87-.858-1.075-.41-.204-.859-.241-1.346-.111zm5.365 3.991l-1.533-5.751.881-.236.375 1.08c.077-.426.267-.8.57-1.122.304-.321.722-.553 1.255-.696l.272 1.02-.266.071c-.34.092-.637.237-.89.438a1.443 1.443 0 00-.523.786c-.094.331-.074.748.06 1.251l.773 2.899-.974.26zm6.451-1.579c-.688.184-1.306.164-1.855-.062-.549-.226-.941-.626-1.177-1.2l.997-.267c.142.285.371.505.686.661.32.146.7.16 1.141.042.409-.11.688-.276.836-.498a.853.853 0 00.123-.703c-.093-.348-.282-.546-.568-.594-.278-.049-.658-.059-1.138-.03a6.202 6.202 0 01-.999-.018 2.21 2.21 0 01-.906-.279c-.267-.161-.446-.415-.539-.763a1.598 1.598 0 01.229-1.378c.292-.426.759-.725 1.4-.897.611-.163 1.15-.142 1.619.063.475.196.818.568 1.03 1.116l-.962.258a1.004 1.004 0 00-.565-.582c-.254-.114-.559-.124-.914-.028-.348.093-.599.239-.753.437a.73.73 0 00-.123.655c.062.231.23.381.504.448.283.065.645.088 1.087.069a7.932 7.932 0 011.085.02c.354.021.661.117.922.287.266.161.455.45.566.867a1.64 1.64 0 01-.248 1.446c-.306.438-.798.748-1.478.93zm6.178-1.655c-.549.147-1.069.154-1.56.02a2.843 2.843 0 01-1.289-.785c-.359-.384-.62-.881-.783-1.492-.161-.603-.181-1.161-.061-1.673.118-.52.356-.961.715-1.323.365-.37.83-.632 1.394-.783.556-.149 1.069-.15 1.539-.002a2.58 2.58 0 011.202.734c.325.351.551.763.676 1.235.023.085.042.171.057.258l.077.29-4.578 1.226c.14.435.339.775.595 1.021.261.236.547.392.857.466.317.073.63.067.939-.015.402-.108.714-.291.935-.549a1.65 1.65 0 00.39-.912l.962-.258a2.72 2.72 0 01-.537 1.573c-.34.464-.85.787-1.53.969zm-1.388-5.206a2.021 2.021 0 00-1.126.76c-.281.374-.377.839-.287 1.395l3.617-.969c-.161-.512-.447-.87-.858-1.075-.411-.205-.859-.242-1.346-.111zm-76.761-87.348l-2.164-8.116.974-.261 6.057 5.346-1.734-6.505.974-.26 2.163 8.116-.973.26-6.058-5.346 1.734 6.505-.973.261zm10.555-2.679c-.549.147-1.068.154-1.559.02a2.853 2.853 0 01-1.29-.785c-.359-.384-.62-.881-.783-1.492-.16-.603-.181-1.16-.061-1.673.118-.52.357-.961.716-1.322.365-.371.829-.633 1.393-.784.556-.149 1.07-.15 1.539-.002.476.137.876.382 1.202.734a2.881 2.881 0 01.733 1.493l.078.29-4.579 1.227c.141.434.339.774.595 1.02.262.237.547.392.857.466.317.073.631.068.94-.015.402-.108.713-.29.934-.549a1.65 1.65 0 00.39-.912l.962-.258a2.704 2.704 0 01-.537 1.573c-.34.464-.85.787-1.53.969zm-1.388-5.206a2.025 2.025 0 00-1.126.761c-.281.374-.376.838-.286 1.394l3.616-.97c-.161-.51-.447-.87-.858-1.074-.41-.205-.859-.242-1.346-.111zm8.022 3.428a2.989 2.989 0 01-1.559.02 2.818 2.818 0 01-1.31-.766c-.369-.39-.635-.89-.797-1.501-.163-.61-.177-1.175-.041-1.691.133-.525.383-.968.75-1.332.374-.365.832-.62 1.373-.765a2.989 2.989 0 011.559-.02 2.72 2.72 0 011.302.781c.374.38.643.876.806 1.486.162.611.177 1.179.044 1.703a2.816 2.816 0 01-.765 1.323 2.998 2.998 0 01-1.362.762zm-.222-.834c.332-.09.619-.253.862-.492a1.88 1.88 0 00.501-.917c.091-.373.073-.798-.055-1.278-.128-.479-.324-.857-.588-1.134a1.804 1.804 0 00-.879-.547 1.886 1.886 0 00-.98.002c-.333.089-.62.253-.863.492a1.895 1.895 0 00-.501.916c-.091.373-.072.798.055 1.278.128.479.324.857.588 1.134.265.277.558.46.879.547.329.086.656.085.981-.001zm7.534-1.125a2.788 2.788 0 01-1.341.049 2.079 2.079 0 01-1.051-.588l.164.987-.881.236-2.225-8.348.973-.261.946 3.548c.111-.328.307-.65.587-.965.288-.317.699-.547 1.232-.69.572-.154 1.105-.156 1.6-.007.496.15.92.42 1.273.815.361.391.619.877.774 1.457.154.58.172 1.13.055 1.65-.113.51-.35.955-.713 1.334-.357.369-.821.63-1.393.783zm-.33-.818a2.01 2.01 0 00.949-.54 2.03 2.03 0 00.491-.952c.084-.37.068-.772-.048-1.205-.115-.432-.301-.788-.558-1.068a1.934 1.934 0 00-.896-.567 1.933 1.933 0 00-1.094-.005 1.952 1.952 0 00-1.441 1.492c-.083.37-.067.772.048 1.204.116.433.302.79.558 1.068.257.28.557.473.9.58.341.098.704.096 1.091-.007zm6.449-.821c-.479.128-.899.153-1.259.076a1.71 1.71 0 01-.88-.46 1.807 1.807 0 01-.467-.819c-.156-.587-.053-1.1.311-1.537.364-.437.932-.759 1.705-.966l1.553-.416-.019-.07c-.134-.502-.366-.846-.697-1.03-.332-.193-.719-.23-1.16-.112a1.742 1.742 0 00-.907.554c-.221.258-.318.578-.291.96l-.997.267a1.934 1.934 0 01.136-1.167c.171-.352.419-.65.743-.895a3.03 3.03 0 011.097-.542c.804-.216 1.464-.16 1.981.165.523.315.879.828 1.069 1.54l.943 3.536-.87.233-.333-1.017a2.385 2.385 0 01-.496 1.028c-.249.307-.636.53-1.162.672zm-.069-.864c.371-.1.662-.281.874-.545.218-.265.356-.571.413-.918a2.42 2.42 0 00-.051-1.03l-.003-.011-1.472.394c-.572.153-.951.362-1.137.628a.946.946 0 00-.153.823c.08.302.254.516.519.644.272.118.608.123 1.01.015zm4.39-.443L181.96-3.48l.881-.236.333 1.017a2.17 2.17 0 01.571-1.073 2.337 2.337 0 011.099-.63c.68-.182 1.277-.118 1.79.192.519.3.892.879 1.121 1.737l.896 3.362-.973.261-.869-3.258c-.319-1.198-.973-1.665-1.962-1.4a1.67 1.67 0 00-1.095.878c-.23.442-.257.996-.079 1.66l.794 2.98-.974.262zm6.634-1.778l-2.226-8.348.974-.261 1.338 5.02 1.707-3.053 1.194-.32-1.858 3.28 3.716 2.384-1.241.332-3.425-2.275.794 2.98-.973.261zm5.722 225.692l-.822-3.085-3.984-4.324 1.101-.295 3.123 3.561.934-4.648 1.09-.292-1.29 5.737.822 3.085-.974.261zm3.356-8.428a.707.707 0 01-.536-.055.702.702 0 01-.315-.437.653.653 0 01.061-.514.712.712 0 01.438-.316.69.69 0 01.524.058.63.63 0 01.321.411.685.685 0 01-.067.54.695.695 0 01-.426.313zm1.386 7.157l-1.533-5.751.974-.261 1.533 5.751-.974.261zm5.291-1.269c-.548.147-1.068.154-1.559.021a2.852 2.852 0 01-1.29-.785c-.359-.384-.62-.882-.783-1.492-.16-.603-.181-1.161-.061-1.674.118-.52.357-.961.716-1.322.365-.371.829-.632 1.393-.783.556-.149 1.07-.15 1.539-.003.476.138.876.383 1.202.734a2.886 2.886 0 01.733 1.493l.078.29-4.579 1.227c.141.434.339.775.595 1.021.262.236.548.392.857.466.317.072.631.067.94-.016.402-.107.713-.29.934-.548a1.65 1.65 0 00.39-.912l.962-.258a2.7 2.7 0 01-.537 1.572c-.34.464-.85.787-1.53.969zm-1.388-5.206a2.016 2.016 0 00-1.125.762c-.282.373-.377.838-.287 1.393l3.616-.969c-.161-.511-.447-.87-.857-1.074-.411-.205-.86-.242-1.347-.112zm5.366 3.992l-2.226-8.349.974-.261 2.225 8.349-.973.261zm5.214-1.249c-.572.154-1.109.157-1.612.01a2.827 2.827 0 01-1.284-.811c-.353-.394-.607-.881-.762-1.461-.155-.58-.172-1.126-.052-1.638.118-.52.356-.965.713-1.334.355-.377.822-.643 1.401-.798.472-.126.915-.142 1.33-.046.414.096.768.291 1.062.585l-.949-3.559.974-.261 2.225 8.348-.881.236-.346-.926c-.111.328-.311.651-.599.968-.288.318-.694.547-1.22.687zm-.121-.874c.386-.103.703-.283.949-.54.252-.266.415-.583.491-.952.084-.37.068-.771-.048-1.204-.115-.433-.301-.789-.558-1.068a1.837 1.837 0 00-.896-.568 1.936 1.936 0 00-1.094-.004 1.956 1.956 0 00-1.441 1.491c-.075.368-.055.769.06 1.202.115.433.297.79.546 1.071.257.279.557.472.9.579.348.097.712.095 1.091-.007zm8.502 1.213l-2.213-8.302.881-.236.346.926c.111-.328.307-.65.587-.965.288-.318.699-.548 1.232-.69.572-.154 1.105-.156 1.6-.007.495.149.92.42 1.273.814.361.392.619.878.774 1.458.154.58.172 1.13.054 1.65-.112.51-.349.955-.712 1.334-.357.369-.821.63-1.393.783a2.791 2.791 0 01-1.341.049 2.08 2.08 0 01-1.051-.588l.937 3.513-.974.261zm2.099-4.053c.386-.104.702-.284.949-.54.244-.265.408-.582.491-.952.084-.37.068-.772-.048-1.205-.115-.433-.301-.789-.558-1.068a1.934 1.934 0 00-.896-.567 1.927 1.927 0 00-1.094-.005 1.932 1.932 0 00-.946.552 1.947 1.947 0 00-.495.94c-.083.37-.067.771.048 1.204.116.433.302.789.558 1.068.257.279.557.472.9.579.341.099.704.097 1.091-.006zm4.499-.448l-1.533-5.751.881-.236.375 1.079c.077-.426.267-.8.57-1.122.304-.321.722-.553 1.255-.696l.272 1.02-.266.072a2.43 2.43 0 00-.89.437 1.443 1.443 0 00-.523.786c-.094.332-.074.749.06 1.251l.773 2.899-.974.261zm6.653-1.634a2.996 2.996 0 01-1.56.021 2.827 2.827 0 01-1.309-.768c-.369-.389-.635-.89-.798-1.5-.163-.611-.176-1.175-.041-1.691.134-.525.384-.969.751-1.332.374-.365.832-.62 1.373-.765a2.992 2.992 0 011.559-.021c.499.132.933.392 1.301.782.375.38.644.876.806 1.486.163.611.178 1.178.044 1.703a2.8 2.8 0 01-.765 1.323c-.366.363-.82.617-1.361.762zm-.223-.835c.333-.089.62-.253.863-.492a1.88 1.88 0 00.5-.916c.092-.373.073-.798-.054-1.278-.128-.479-.324-.857-.588-1.134a1.799 1.799 0 00-.879-.547 1.925 1.925 0 00-1.843.493c-.243.239-.41.545-.501.917-.091.373-.073.798.055 1.278.128.479.324.857.588 1.134.264.277.557.46.879.547.329.086.656.085.98-.002zm6.471-.988c-.525.141-.973.124-1.342-.05-.369-.175-.643-.594-.82-1.259l-.844-3.166-.997.268-.219-.824.997-.267-.24-1.414.846-.226.368 1.379 1.692-.453.219.823-1.692.454.844 3.165c.097.363.236.591.418.683.18.084.455.077.826-.022l.603-.162.222.835-.881.236zm4.709-1.113a2.993 2.993 0 01-1.559.021 2.825 2.825 0 01-1.31-.768c-.369-.389-.635-.89-.798-1.5-.162-.611-.176-1.175-.04-1.691.133-.525.383-.969.75-1.332.374-.365.832-.62 1.373-.765a2.993 2.993 0 011.559-.021c.499.132.933.392 1.302.782.374.38.643.876.806 1.486.162.611.177 1.178.044 1.703a2.812 2.812 0 01-.765 1.323 3 3 0 01-1.362.762zm-.222-.835c.332-.089.619-.253.862-.492.243-.238.409-.544.501-.916.091-.373.073-.798-.055-1.278-.128-.479-.324-.857-.588-1.134a1.799 1.799 0 00-.879-.547 1.932 1.932 0 00-1.843.493 1.897 1.897 0 00-.501.917c-.091.373-.072.798.055 1.278.128.479.324.857.588 1.134a1.9 1.9 0 00.879.547c.329.086.656.085.981-.002zm7.105-1.009a3.086 3.086 0 01-1.583.027c-.5-.14-.938-.399-1.313-.779-.368-.39-.633-.886-.794-1.489-.161-.603-.177-1.162-.049-1.677.133-.524.383-.968.75-1.331a3.01 3.01 0 011.382-.78c.68-.183 1.299-.158 1.857.073.566.23.991.625 1.273 1.187l-.997.267a1.302 1.302 0 00-.787-.671 1.92 1.92 0 00-1.135-.018 1.885 1.885 0 00-.851.488c-.243.239-.41.545-.501.917-.091.373-.073.798.055 1.278.128.479.324.857.588 1.134.264.277.562.462.893.556.329.086.656.085.981-.002.402-.108.727-.299.977-.573.248-.281.362-.614.343-.998l.996-.267a2.384 2.384 0 01-.503 1.65c-.375.49-.902.826-1.582 1.008zm6.587-1.765a2.982 2.982 0 01-1.559.02 2.82 2.82 0 01-1.31-.767c-.369-.39-.635-.89-.797-1.501-.163-.61-.177-1.174-.041-1.691.133-.524.383-.968.75-1.331a3.059 3.059 0 011.373-.766 2.996 2.996 0 011.56-.02c.498.131.932.392 1.301.782.374.38.643.875.806 1.486.163.611.177 1.178.044 1.703a2.822 2.822 0 01-.765 1.323 3 3 0 01-1.362.762zm-.222-.835c.332-.089.619-.253.862-.492s.41-.544.501-.917c.091-.372.073-.798-.055-1.277-.128-.479-.324-.857-.588-1.134a1.8 1.8 0 00-.879-.548 1.893 1.893 0 00-.98.002c-.333.089-.62.253-.863.492a1.888 1.888 0 00-.5.917c-.092.372-.073.798.054 1.277.128.48.324.858.588 1.135.265.277.558.459.879.547.329.086.656.085.981-.002zm4.425-.44l-2.225-8.349.973-.261 2.226 8.349-.974.261zM298.64 84.763l-2.163-8.117.973-.26 6.058 5.346-1.734-6.505.973-.261 2.164 8.116-.974.261-6.057-5.346 1.734 6.505-.974.26zm7.992-2.142l-2.164-8.116 4.938-1.323.213.8-3.964 1.062.76 2.852 3.374-.904.21.789-3.373.904.979 3.675-.973.261zm8.093-2.168l-1.951-7.317-2.422.65-.214-.8 5.819-1.56.213.8-2.422.65 1.95 7.316-.973.26zm89.201-23.902l-2.163-8.116 2.492-.668c1.429-.383 2.577-.301 3.443.245.874.544 1.48 1.45 1.818 2.718.331 1.245.254 2.322-.232 3.23-.481.9-1.436 1.54-2.866 1.923l-2.492.668zm.758-1.072l1.495-.4c.788-.212 1.38-.507 1.776-.887.401-.389.638-.85.711-1.383.071-.54.018-1.144-.159-1.808-.181-.68-.437-1.237-.768-1.67a2.309 2.309 0 00-1.308-.855c-.534-.139-1.195-.102-1.983.109l-1.495.4 1.731 6.494zm7.313-1.09l-2.164-8.117 5.019-1.345.214.8-4.046 1.084.754 2.83 3.698-.991.21.788-3.697.991.772 2.899 4.046-1.084.213.8-5.019 1.345zm6.125-1.642l1.39-4.757-3.553-3.36 1.101-.294 2.859 2.712 1.036-3.756 1.089-.292-1.396 4.735 3.571 3.379-1.101.295-2.874-2.721-1.02 3.764-1.102.295zM304.646 197.183c-.796.213-1.53.223-2.202.031a3.73 3.73 0 01-1.726-1.116c-.486-.549-.84-1.24-1.062-2.075-.221-.827-.256-1.596-.106-2.307.148-.719.46-1.333.937-1.842.485-.511 1.125-.873 1.921-1.086.927-.249 1.741-.226 2.44.067.704.283 1.244.801 1.619 1.554l-1.078.289a2.194 2.194 0 00-1.087-1.001c-.461-.208-1.016-.225-1.665-.051-.58.155-1.05.426-1.41.813-.363.378-.597.851-.703 1.418-.1.557-.057 1.183.128 1.879.186.695.461 1.263.827 1.704a2.8 2.8 0 001.315.877c.502.147 1.044.143 1.623-.012.649-.174 1.124-.459 1.424-.854a2.2 2.2 0 00.447-1.399l1.078-.289c.046.824-.166 1.535-.636 2.133-.462.596-1.157 1.018-2.084 1.267zm4.689-1.406l-1.533-5.751.881-.236.374 1.08c.077-.426.267-.8.571-1.122.303-.321.721-.554 1.255-.696l.272 1.02-.267.071c-.34.091-.636.237-.889.437a1.45 1.45 0 00-.524.787c-.093.331-.073.748.061 1.251l.772 2.898-.973.261zm5.517 1.255l.597-3.489-.336.09-3.668-4.583 1.054-.283 3.094 3.967.824-5.016 1.009-.271-1.554 9.312-1.02.273zm5.814-1.558l-2.213-8.302.881-.236.346.926c.112-.328.307-.65.588-.965.288-.317.698-.547 1.231-.69.572-.153 1.106-.156 1.601-.007a2.75 2.75 0 011.273.815c.361.392.618.877.773 1.457.155.58.173 1.13.055 1.65-.112.511-.35.955-.713 1.334-.357.369-.821.63-1.393.783a2.778 2.778 0 01-1.341.049 2.077 2.077 0 01-1.05-.588l.936 3.513-.974.261zm2.099-4.053c.387-.104.703-.284.949-.54.244-.264.408-.582.492-.952.083-.37.067-.772-.048-1.204-.116-.433-.302-.789-.558-1.068a1.936 1.936 0 00-.897-.568 1.936 1.936 0 00-1.094-.005 1.949 1.949 0 00-1.44 1.492c-.084.37-.068.772.048 1.205.115.432.301.788.558 1.068.256.279.556.472.899.578.341.1.705.097 1.091-.006zm6.545-.996c-.525.141-.973.124-1.342-.05-.369-.175-.643-.594-.82-1.259l-.844-3.166-.996.268-.22-.824.997-.267-.24-1.414.846-.226.368 1.379 1.692-.453.219.823-1.692.454.844 3.165c.097.363.236.591.418.683.18.084.455.077.826-.022l.603-.162.222.835-.881.236zm4.709-1.113a2.993 2.993 0 01-1.559.021 2.825 2.825 0 01-1.31-.768c-.369-.389-.635-.89-.798-1.5-.162-.611-.176-1.175-.04-1.691.133-.525.383-.969.75-1.332.374-.365.832-.62 1.373-.765a2.993 2.993 0 011.559-.021c.499.132.933.392 1.302.782.374.38.643.876.806 1.486.162.611.177 1.178.044 1.703a2.817 2.817 0 01-.765 1.323 3 3 0 01-1.362.762zm-.222-.835a1.874 1.874 0 001.363-1.408c.091-.373.073-.798-.055-1.278-.128-.479-.324-.857-.588-1.134a1.799 1.799 0 00-.879-.547 1.893 1.893 0 00-.98.001c-.333.089-.62.253-.863.492a1.897 1.897 0 00-.501.917c-.091.373-.072.798.055 1.278.128.479.324.857.588 1.134.265.277.558.46.879.547.329.086.656.085.981-.002zm9.223-1.713l-4.392-7.532 1.043-.279 3.608 6.499.136-7.503 1.078-.288 3.793 6.449-.084-7.443 1.043-.28-.108 8.725-1.113.299-3.722-6.184-.196 7.233-1.086.304zm10.86-2.773c-.48.128-.899.154-1.259.076a1.705 1.705 0 01-.88-.46 1.797 1.797 0 01-.467-.819c-.157-.587-.053-1.1.31-1.537.364-.437.932-.759 1.705-.966l1.553-.416-.018-.07c-.134-.502-.366-.846-.697-1.03-.333-.193-.72-.23-1.16-.112a1.747 1.747 0 00-.908.554c-.221.258-.318.578-.291.96l-.996.267c-.073-.428-.028-.817.136-1.167.171-.352.418-.65.742-.895a3.04 3.04 0 011.097-.542c.804-.215 1.465-.16 1.982.165.523.315.879.828 1.068 1.54l.943 3.536-.869.233-.333-1.016c-.076.368-.241.71-.496 1.027-.25.307-.637.531-1.162.672zm-.069-.864c.371-.099.662-.281.873-.544.219-.266.357-.572.413-.919.057-.346.04-.69-.051-1.03l-.003-.011-1.472.394c-.572.153-.951.363-1.137.628a.945.945 0 00-.153.823.949.949 0 00.52.644c.271.118.608.123 1.01.015zm4.39-.443l-2.226-8.349.974-.261 2.226 8.349-.974.261zm2.569-.689l-2.225-8.348.974-.261 2.225 8.348-.974.261zm5.192-1.242c-.549.147-1.069.154-1.56.021a2.852 2.852 0 01-1.289-.785c-.359-.385-.62-.882-.783-1.493-.161-.603-.181-1.16-.061-1.673.118-.52.356-.961.715-1.322.365-.371.83-.632 1.394-.783.556-.149 1.069-.15 1.539-.003.475.138.876.382 1.202.734a2.891 2.891 0 01.733 1.493l.077.29-4.578 1.227c.14.434.339.775.595 1.021.261.236.547.391.857.466.317.072.63.067.939-.016.402-.108.714-.29.935-.548a1.65 1.65 0 00.39-.913l.962-.257a2.71 2.71 0 01-.537 1.572c-.34.464-.85.787-1.53.969zm-1.388-5.206a2.021 2.021 0 00-1.126.761c-.281.374-.377.839-.287 1.394l3.617-.969c-.161-.512-.447-.87-.858-1.075-.41-.204-.859-.241-1.346-.111zm7.445 3.434c-.526.141-.973.124-1.343-.05-.369-.174-.642-.594-.82-1.259l-.843-3.165-.997.267-.22-.823.997-.267-.24-1.414.846-.227.368 1.38 1.692-.454.22.823-1.693.454.844 3.165c.097.364.236.591.418.683.18.085.455.077.826-.022l.603-.162.222.835-.88.236zm34.041-8.972c-.595.159-1.141.19-1.639.091a2.491 2.491 0 01-1.261-.631c-.343-.322-.582-.738-.718-1.248l1.02-.274c.084.317.236.591.455.822.217.224.486.38.807.467.327.078.7.061 1.117-.05.549-.147.939-.393 1.17-.736.231-.344.294-.713.189-1.107-.086-.325-.225-.565-.416-.721a1.576 1.576 0 00-.697-.335 4.635 4.635 0 00-.898-.107 27.686 27.686 0 01-1.034-.058c-.684-.049-1.219-.192-1.604-.428-.388-.244-.651-.625-.789-1.142a2.118 2.118 0 01-.005-1.229c.118-.396.342-.738.671-1.025.335-.296.765-.515 1.29-.656.518-.139.992-.162 1.422-.07a2.2 2.2 0 011.106.561c.307.282.522.638.645 1.069l-1.02.273a1.428 1.428 0 00-.35-.614 1.386 1.386 0 00-.678-.402c-.269-.077-.582-.068-.937.027-.443.11-.776.32-1 .628-.216.307-.27.665-.161 1.075.093.347.261.588.503.722.251.132.57.212.959.24.386.021.832.046 1.336.077.424.035.815.105 1.173.207.359.103.662.278.911.527.256.246.445.597.566 1.053.103.386.101.78-.008 1.182-.11.394-.341.754-.693 1.08-.344.324-.821.568-1.432.732zm4.022-1.227l-1.533-5.751.88-.236.293.816c.103-.359.286-.664.55-.917.264-.253.589-.431.975-.535.456-.122.871-.134 1.245-.035.382.096.712.31.99.641.109-.402.31-.75.604-1.044a2.385 2.385 0 011.067-.609c.688-.184 1.292-.122 1.813.185.519.3.893.879 1.121 1.737l.897 3.363-.962.258-.869-3.258c-.159-.596-.398-1.012-.718-1.249-.32-.237-.704-.296-1.152-.176a1.51 1.51 0 00-1.014.856c-.206.436-.221.987-.044 1.651l.794 2.98-.973.261-.869-3.258c-.158-.595-.398-1.012-.718-1.249-.32-.237-.704-.296-1.152-.176-.456.123-.79.407-1.002.853-.207.436-.221.987-.044 1.651l.794 2.98-.973.261zm12.318-3.151c-.479.128-.899.154-1.259.076a1.709 1.709 0 01-.88-.46 1.806 1.806 0 01-.467-.819c-.156-.587-.053-1.1.311-1.537.364-.437.932-.759 1.704-.966l1.554-.416-.019-.069c-.134-.503-.366-.847-.697-1.031-.333-.193-.719-.23-1.16-.112a1.751 1.751 0 00-.908.554c-.221.258-.318.578-.29.96l-.997.267a1.934 1.934 0 01.136-1.167c.171-.352.418-.65.743-.895a3.04 3.04 0 011.097-.542c.803-.215 1.464-.16 1.981.165.523.315.879.828 1.069 1.54l.943 3.536-.87.233-.333-1.016c-.076.368-.241.71-.496 1.027-.249.307-.637.531-1.162.672zm-.069-.864c.371-.099.662-.281.873-.544.219-.266.357-.572.414-.919.056-.346.039-.69-.051-1.03l-.003-.011-1.472.394c-.572.153-.951.363-1.137.628a.945.945 0 00-.153.823c.08.302.253.516.519.644.272.118.608.123 1.01.015zm4.39-.443l-1.533-5.751.881-.236.375 1.079c.077-.426.267-.8.57-1.121.304-.322.722-.554 1.255-.697l.272 1.02-.267.072c-.34.091-.636.237-.889.437a1.443 1.443 0 00-.523.786c-.094.332-.074.749.06 1.251l.773 2.899-.974.261zm6.483-1.737c-.526.141-.973.124-1.342-.051-.37-.174-.643-.593-.82-1.258l-.844-3.166-.997.267-.219-.823.996-.267-.24-1.414.846-.227.368 1.38 1.692-.453.22.823-1.692.453.843 3.166c.097.363.237.591.418.683.18.084.456.077.827-.023l.602-.161.223.835-.881.236zm7.958-1.984a3.086 3.086 0 01-1.583.027 2.909 2.909 0 01-1.312-.779c-.369-.39-.634-.886-.795-1.489-.161-.603-.177-1.162-.049-1.676.133-.525.383-.969.75-1.332a3.01 3.01 0 011.382-.78c.68-.182 1.299-.158 1.857.074.567.229.991.625 1.273 1.187l-.997.267a1.296 1.296 0 00-.787-.671 1.92 1.92 0 00-1.135-.019 1.877 1.877 0 00-1.352 1.406c-.091.372-.073.798.055 1.277.128.479.324.857.588 1.134.264.277.562.463.893.556.33.086.656.085.981-.002a1.97 1.97 0 00.977-.572c.248-.282.362-.615.343-.999l.997-.267a2.394 2.394 0 01-.504 1.651c-.375.489-.902.825-1.582 1.007zm6.587-1.765a2.992 2.992 0 01-1.559.021 2.828 2.828 0 01-1.31-.767c-.369-.39-.635-.891-.797-1.501-.163-.611-.177-1.175-.041-1.691.133-.525.383-.969.75-1.332.375-.365.832-.62 1.373-.765a2.996 2.996 0 011.56-.021c.498.132.932.392 1.301.782.374.38.643.876.806 1.486.163.611.177 1.178.044 1.703a2.812 2.812 0 01-.765 1.323 3 3 0 01-1.362.762zm-.222-.834c.332-.09.62-.254.862-.492.243-.239.41-.545.501-.917.091-.373.073-.798-.055-1.278-.128-.479-.324-.857-.588-1.134a1.794 1.794 0 00-.879-.547 1.883 1.883 0 00-.98.002c-.332.089-.62.253-.863.492a1.88 1.88 0 00-.5.916c-.092.373-.073.798.055 1.278.127.479.323.857.588 1.134.264.277.557.46.878.547.329.086.656.085.981-.001zm4.425-.441l-1.533-5.751.881-.236.333 1.016c.089-.413.279-.77.571-1.072a2.336 2.336 0 011.099-.63c.68-.182 1.277-.118 1.79.191.518.3.892.879 1.121 1.737l.896 3.363-.973.261-.869-3.258c-.319-1.198-.974-1.665-1.963-1.4a1.676 1.676 0 00-1.095.877c-.229.443-.256.997-.078 1.661l.794 2.98-.974.261zm8.905-2.386c-.525.141-.973.124-1.342-.05-.369-.175-.643-.594-.82-1.259l-.844-3.165-.996.267-.22-.824.997-.267-.24-1.414.846-.226.368 1.379 1.692-.453.219.823-1.692.454.844 3.165c.097.363.236.591.418.683.18.085.455.077.826-.022l.603-.162.222.835-.881.236zm2.211-.592l-1.533-5.751.881-.237.375 1.08c.076-.426.266-.8.57-1.122.303-.321.722-.553 1.255-.696l.272 1.02-.267.072c-.34.091-.636.237-.889.437-.255.192-.43.454-.523.786-.094.332-.074.749.06 1.251l.773 2.899-.974.261zm6.16-1.502c-.479.128-.898.154-1.258.076a1.71 1.71 0 01-.881-.459 1.813 1.813 0 01-.466-.82c-.157-.587-.053-1.099.31-1.536.364-.437.932-.759 1.705-.966l1.553-.417-.018-.069c-.134-.503-.367-.846-.697-1.031-.333-.192-.72-.229-1.16-.111a1.746 1.746 0 00-.908.553c-.221.258-.318.578-.291.96l-.997.267c-.072-.427-.027-.816.136-1.167.171-.352.419-.65.743-.894a3.042 3.042 0 011.097-.543c.804-.215 1.464-.16 1.982.165.523.316.879.829 1.068 1.54l.943 3.536-.869.233-.333-1.016a2.392 2.392 0 01-.496 1.027c-.25.307-.637.531-1.163.672zm-.068-.864c.371-.099.662-.28.873-.544.219-.266.357-.572.413-.918a2.42 2.42 0 00-.051-1.03l-.003-.012-1.472.395c-.572.153-.951.362-1.137.627a.947.947 0 00-.153.824.947.947 0 00.52.643c.271.118.608.123 1.01.015zm7.07-1.012a3.086 3.086 0 01-1.583.027 2.92 2.92 0 01-1.313-.779c-.369-.39-.633-.886-.794-1.489-.161-.603-.177-1.162-.05-1.677.134-.524.384-.968.751-1.331a3.011 3.011 0 011.381-.78c.68-.183 1.3-.158 1.858.073.566.23.99.625 1.273 1.187l-.997.268a1.302 1.302 0 00-.788-.672 1.92 1.92 0 00-1.135-.018c-.324.087-.608.25-.851.488a1.888 1.888 0 00-.5.917c-.091.373-.073.798.055 1.278.127.479.323.857.588 1.134.264.277.562.462.893.556.329.086.656.085.981-.002.401-.108.727-.299.977-.573.248-.281.362-.614.342-.998l.997-.267a2.38 2.38 0 01-.504 1.65c-.374.49-.901.826-1.581 1.008zm6.044-1.768c-.526.14-.973.124-1.343-.051-.369-.174-.642-.594-.819-1.258l-.844-3.166-.997.267-.22-.823.997-.267-.24-1.414.846-.227.368 1.38 1.692-.454.22.824-1.693.453.844 3.166c.097.363.236.591.418.683.18.084.455.077.826-.023l.603-.161.223.834-.881.237zM434.53 276.261c-.595.159-1.141.19-1.639.091a2.503 2.503 0 01-1.261-.631c-.343-.322-.582-.738-.718-1.249l1.02-.273c.084.317.236.591.455.822.217.224.486.379.807.467.328.078.7.061 1.117-.051.549-.147.939-.392 1.17-.735.231-.344.294-.713.189-1.107-.086-.325-.225-.565-.415-.721a1.585 1.585 0 00-.698-.335 4.635 4.635 0 00-.898-.107 27.768 27.768 0 01-1.034-.059c-.684-.048-1.218-.191-1.604-.427-.388-.244-.651-.625-.789-1.143a2.114 2.114 0 01-.005-1.228c.118-.396.342-.738.671-1.025.335-.297.765-.515 1.29-.656.518-.139.992-.162 1.422-.071a2.262 2.262 0 011.751 1.631l-1.02.273a1.428 1.428 0 00-.35-.614 1.386 1.386 0 00-.678-.402c-.269-.077-.581-.068-.937.027-.442.11-.776.32-1 .628-.216.307-.27.665-.161 1.074.093.348.261.589.503.723.251.131.57.212.959.24.386.021.832.046 1.337.077.423.035.814.104 1.173.207.358.103.662.278.91.526.256.247.445.598.566 1.054.103.386.101.78-.007 1.182-.111.394-.342.754-.694 1.08-.344.324-.821.568-1.432.732zm4.022-1.227l-1.533-5.751.881-.236.292.816c.103-.359.286-.665.55-.918a2.21 2.21 0 01.975-.534c.456-.122.871-.134 1.245-.036.382.097.712.311.991.642.108-.402.309-.75.603-1.044a2.385 2.385 0 011.067-.609c.688-.184 1.292-.122 1.813.185.519.3.893.879 1.121 1.737l.897 3.363-.962.258-.869-3.259c-.159-.595-.398-1.011-.718-1.248-.32-.238-.704-.296-1.152-.176a1.512 1.512 0 00-1.014.855c-.206.437-.221.987-.044 1.652l.795 2.98-.974.261-.869-3.258c-.158-.595-.398-1.012-.718-1.249-.319-.237-.704-.296-1.152-.176-.456.122-.79.407-1.002.853-.207.436-.221.987-.044 1.651l.794 2.98-.973.261zm12.318-3.151c-.479.128-.899.153-1.259.076a1.709 1.709 0 01-.88-.46 1.806 1.806 0 01-.467-.819c-.156-.587-.053-1.1.311-1.537.364-.437.932-.759 1.705-.966l1.553-.416-.019-.07c-.134-.502-.366-.846-.697-1.03-.333-.193-.719-.23-1.16-.112a1.745 1.745 0 00-.908.554c-.221.258-.317.578-.29.96l-.997.267a1.934 1.934 0 01.136-1.167 2.45 2.45 0 01.743-.895 3.032 3.032 0 011.097-.542c.804-.216 1.464-.161 1.981.165.523.315.879.828 1.069 1.539l.943 3.537-.87.233-.333-1.017a2.385 2.385 0 01-.496 1.028c-.249.307-.637.531-1.162.672zm-.069-.864c.371-.099.662-.281.873-.545.219-.265.357-.571.414-.918.056-.346.039-.69-.051-1.03l-.003-.011-1.472.394c-.572.153-.951.362-1.137.628a.945.945 0 00-.153.823c.08.302.253.516.519.644.272.118.608.123 1.01.015zm4.39-.443l-1.533-5.752.881-.236.375 1.08c.077-.426.267-.8.57-1.122.304-.321.722-.553 1.255-.696l.272 1.02-.266.072c-.34.091-.637.236-.89.437a1.443 1.443 0 00-.523.786c-.094.331-.074.748.06 1.251l.773 2.899-.974.261zm6.483-1.737c-.525.14-.973.124-1.342-.051-.37-.174-.643-.594-.82-1.258l-.844-3.166-.997.267-.219-.823.997-.267-.241-1.414.846-.227.368 1.38 1.693-.454.219.824-1.692.453.844 3.166c.096.363.236.591.418.683.179.084.455.077.826-.023l.602-.161.223.835-.881.236zm7.958-1.984a3.086 3.086 0 01-1.583.027 2.909 2.909 0 01-1.312-.779c-.369-.39-.634-.886-.795-1.489-.16-.603-.177-1.162-.049-1.676.133-.525.383-.969.75-1.332a3.015 3.015 0 011.382-.78c.68-.182 1.299-.158 1.857.074.567.229.991.624 1.273 1.187l-.997.267a1.296 1.296 0 00-.787-.671 1.911 1.911 0 00-1.135-.019c-.325.087-.608.25-.851.489s-.41.544-.501.916c-.091.373-.073.799.055 1.278s.324.857.588 1.134c.264.277.562.463.893.556.33.086.656.085.981-.002.402-.108.728-.298.978-.572.247-.282.361-.615.342-.999l.997-.267a2.394 2.394 0 01-.504 1.651c-.375.489-.902.825-1.582 1.007zm6.587-1.765c-.54.145-1.06.152-1.559.02a2.82 2.82 0 01-1.31-.767c-.369-.389-.634-.89-.797-1.5-.163-.611-.177-1.175-.041-1.691.133-.525.383-.969.75-1.332a3.057 3.057 0 011.373-.765 2.996 2.996 0 011.56-.021c.498.132.932.392 1.301.782.375.38.643.875.806 1.486.163.611.177 1.178.044 1.703-.135.516-.39.957-.765 1.323a3 3 0 01-1.362.762zm-.222-.835a1.91 1.91 0 00.862-.492c.243-.239.41-.544.501-.916.091-.373.073-.799-.055-1.278s-.324-.857-.588-1.134a1.79 1.79 0 00-.879-.547 1.883 1.883 0 00-.98.001 1.91 1.91 0 00-.862.492c-.243.239-.41.545-.501.917-.091.372-.073.798.055 1.278.127.479.323.857.588 1.134.264.277.557.459.878.547.329.086.656.085.981-.002zm4.425-.44l-1.533-5.751.881-.236.333 1.016c.089-.413.279-.77.571-1.072a2.336 2.336 0 011.099-.63c.68-.182 1.277-.118 1.79.191.519.3.892.879 1.121 1.737l.896 3.363-.973.261-.869-3.258c-.319-1.199-.973-1.665-1.963-1.4a1.673 1.673 0 00-1.095.877c-.229.443-.256.996-.078 1.661l.794 2.98-.974.261zm8.905-2.386c-.525.141-.972.124-1.342-.05-.369-.175-.643-.594-.82-1.259l-.844-3.166-.996.267-.22-.823.997-.267-.24-1.414.846-.227.368 1.38 1.692-.453.219.823-1.692.453.844 3.166c.097.363.236.591.418.683.18.084.455.077.826-.023l.603-.161.222.835-.881.236zm2.211-.592l-1.533-5.752.881-.236.375 1.08c.076-.426.266-.8.57-1.122.303-.321.722-.553 1.255-.696l.272 1.02-.267.072a2.41 2.41 0 00-.889.437c-.255.192-.43.454-.523.786-.094.331-.074.748.06 1.251l.773 2.899-.974.261zm6.16-1.502c-.479.128-.898.154-1.258.076a1.698 1.698 0 01-.88-.46 1.797 1.797 0 01-.467-.819c-.157-.587-.053-1.099.31-1.536.364-.437.932-.76 1.705-.967l1.553-.416-.018-.069c-.134-.503-.366-.846-.697-1.031-.333-.192-.72-.23-1.16-.112a1.747 1.747 0 00-.908.554c-.221.258-.318.578-.291.96l-.996.267c-.073-.428-.028-.817.136-1.167.171-.352.418-.65.742-.894a3.042 3.042 0 011.097-.543c.804-.215 1.465-.16 1.982.165.523.315.879.829 1.068 1.54l.943 3.536-.869.233-.333-1.016c-.076.368-.241.71-.496 1.027-.25.307-.637.531-1.163.672zm-.068-.864c.371-.099.662-.281.873-.544.219-.266.357-.572.413-.919.057-.346.04-.689-.051-1.029l-.003-.012-1.472.394c-.572.154-.951.363-1.137.628a.947.947 0 00-.153.824.947.947 0 00.52.643c.271.118.608.123 1.01.015zm7.07-1.012a3.075 3.075 0 01-1.583.026 2.91 2.91 0 01-1.313-.778c-.369-.39-.633-.886-.794-1.489-.161-.603-.177-1.162-.05-1.677.134-.524.384-.968.751-1.331a3.013 3.013 0 011.381-.781c.68-.182 1.3-.157 1.858.074.566.229.99.625 1.273 1.187l-.997.267a1.301 1.301 0 00-.787-.671 1.93 1.93 0 00-1.136-.019c-.324.087-.608.25-.85.489-.243.239-.41.545-.501.917-.091.372-.073.798.055 1.277.127.48.323.858.588 1.135.264.277.562.462.893.556.329.085.656.085.981-.002.401-.108.727-.299.977-.573.248-.281.362-.614.342-.998l.997-.267a2.385 2.385 0 01-.503 1.65c-.375.49-.902.826-1.582 1.008zm6.044-1.769c-.526.141-.973.124-1.342-.05-.37-.174-.643-.594-.82-1.259l-.844-3.165-.997.267-.219-.823.996-.267-.24-1.414.846-.227.368 1.38 1.692-.454.22.824-1.693.453.844 3.165c.097.364.237.591.418.684.18.084.456.076.826-.023l.603-.162.223.835-.881.236z" fill="#fff" fill-opacity=".8"/><rect x="29.082" y="80.898" width="99" height="99" rx="9.5" transform="rotate(-15 29.082 80.898)" stroke="#fff" stroke-opacity=".25"/><rect x=".612" y="-25.354" width="99" height="99" rx="9.5" transform="rotate(-15 .612 -25.354)" stroke="#fff" stroke-opacity=".25"/><rect x="57.553" y="187.149" width="99" height="99" rx="9.5" transform="rotate(-15 57.553 187.149)" stroke="#fff" stroke-opacity=".25"/><rect x="135.334" y="52.428" width="99" height="99" rx="9.5" transform="rotate(-15 135.334 52.428)" stroke="#fff" stroke-opacity=".25"/><rect x="106.864" y="-53.824" width="99" height="99" rx="9.5" transform="rotate(-15 106.864 -53.824)" stroke="#fff" stroke-opacity=".25"/><rect x="213.116" y="-82.294" width="99" height="99" rx="9.5" transform="rotate(-15 213.116 -82.294)" stroke="#fff" stroke-opacity=".25"/><rect x="163.804" y="158.679" width="99" height="99" rx="9.5" transform="rotate(-15 163.804 158.679)" stroke="#fff" stroke-opacity=".25"/><rect x="192.274" y="264.931" width="99" height="99" rx="9.5" transform="rotate(-15 192.274 264.931)" stroke="#fff" stroke-opacity=".25"/><rect x="241.586" y="23.957" width="99" height="99" rx="9.5" transform="rotate(-15 241.586 23.957)" stroke="#fff" stroke-opacity=".25"/><rect x="270.056" y="130.209" width="99" height="99" rx="9.5" transform="rotate(-15 270.056 130.209)" stroke="#fff" stroke-opacity=".25"/><rect x="298.526" y="236.461" width="99" height="99" rx="9.5" transform="rotate(-15 298.526 236.461)" stroke="#fff" stroke-opacity=".25"/><rect x="347.838" y="-4.513" width="99" height="99" rx="9.5" transform="rotate(-15 347.838 -4.513)" stroke="#fff" stroke-opacity=".25"/><rect x="376.308" y="101.739" width="99" height="99" rx="9.5" transform="rotate(-15 376.308 101.739)" stroke="#fff" stroke-opacity=".25"/><rect x="404.778" y="207.991" width="99" height="99" rx="9.5" transform="rotate(-15 404.778 207.991)" stroke="#fff" stroke-opacity=".25"/><g clip-path="url(#clip0_243_506)"><path d="M80.301 113.588c-1.183.317-2.27.166-3.262-.454-.991-.62-1.654-1.479-1.989-2.577a5.41 5.41 0 01-.108-.515 3.69 3.69 0 01-.05-.53l-.17-10.1a4.649 4.649 0 01.962-2.885c.646-.858 1.476-1.422 2.49-1.694l10.988-2.944c1.014-.272 2.015-.198 3.003.222a4.648 4.648 0 012.277 2.017l4.903 8.832c.083.159.162.324.238.495.076.171.137.34.182.51.302 1.126.162 2.201-.42 3.222-.581 1.022-1.464 1.691-2.647 2.008a4.287 4.287 0 01-2.364-.031 4.035 4.035 0 01-1.974-1.283l-1.227-1.422a.877.877 0 00-.525-.328 1.464 1.464 0 00-.64.036l-5.353 1.434a1.46 1.46 0 00-.572.289.88.88 0 00-.291.546l-.351 1.846a4.036 4.036 0 01-1.068 2.098 4.282 4.282 0 01-2.032 1.208zm-.368-1.713c.413-.11.783-.325 1.11-.644.328-.32.55-.747.669-1.282l.358-1.817a2.848 2.848 0 01.723-1.416 2.855 2.855 0 011.37-.805l5.352-1.434a2.807 2.807 0 011.578.03c.527.161.984.441 1.373.84l1.219 1.394c.37.404.776.663 1.22.776.442.112.87.113 1.284.003.638-.171 1.152-.546 1.54-1.123.39-.577.498-1.225.325-1.944a4.503 4.503 0 00-.1-.32 1.494 1.494 0 00-.165-.333l-4.896-8.804a2.804 2.804 0 00-1.387-1.29 2.805 2.805 0 00-1.891-.127l-10.987 2.945a2.804 2.804 0 00-1.575 1.055 2.804 2.804 0 00-.556 1.81l.162 10.072c.001.08.031.304.089.671.191.714.61 1.225 1.257 1.535.647.31 1.29.38 1.928.208zm7.464-11.36a.84.84 0 01-.66-.095.874.874 0 01-.42-.552.793.793 0 01.1-.646.9.9 0 01.555-.405.85.85 0 011.044.626.864.864 0 01-.081.656.827.827 0 01-.538.416zm1.65-2.858a.84.84 0 01-.66-.095.872.872 0 01-.42-.552.793.793 0 01.1-.645.9.9 0 01.555-.406.85.85 0 011.044.626.864.864 0 01-.081.656.826.826 0 01-.538.416zm1.207 4.508a.844.844 0 01-.659-.095.874.874 0 01-.42-.552.794.794 0 01.1-.646.897.897 0 01.555-.405.812.812 0 01.642.085.847.847 0 01.401.541.865.865 0 01-.08.656.827.827 0 01-.539.416zm1.65-2.858a.84.84 0 01-.66-.095.873.873 0 01-.419-.552.793.793 0 01.1-.645.9.9 0 01.555-.406.85.85 0 011.044.626.864.864 0 01-.082.656.825.825 0 01-.538.416zm-9.651 4.549a.701.701 0 01-.55-.079.7.7 0 01-.343-.437l-.34-1.268-1.268.34a.702.702 0 01-.55-.079.7.7 0 01-.263-.986.697.697 0 01.436-.343l1.268-.34-.34-1.268a.7.7 0 01.08-.55.7.7 0 01.436-.343.7.7 0 01.55.08.7.7 0 01.343.436l.34 1.267 1.267-.34a.699.699 0 01.55.08.7.7 0 01.264.986.697.697 0 01-.436.343l-1.268.34.34 1.268a.698.698 0 01-.08.549.698.698 0 01-.436.344z" fill="url(#paint1_linear_243_506)"/></g><g clip-path="url(#clip1_243_506)"><path d="M52.02 4.18c-1.183.317-2.27.166-3.262-.455-.991-.62-1.654-1.479-1.989-2.577a5.301 5.301 0 01-.107-.514 3.681 3.681 0 01-.052-.53l-.17-10.1a4.648 4.648 0 01.964-2.885c.646-.858 1.476-1.423 2.49-1.694L60.88-17.52c1.014-.272 2.016-.198 3.004.221a4.648 4.648 0 012.277 2.017l4.902 8.832c.083.16.163.324.239.495.076.171.136.341.182.51.302 1.127.162 2.201-.42 3.223C70.483-1.2 69.6-.531 68.417-.213a4.284 4.284 0 01-2.363-.031 4.034 4.034 0 01-1.975-1.283L62.853-2.95a.878.878 0 00-.526-.327 1.447 1.447 0 00-.64.035l-5.352 1.435c-.226.06-.416.157-.572.289a.877.877 0 00-.292.546l-.35 1.845a4.034 4.034 0 01-1.069 2.098 4.284 4.284 0 01-2.031 1.209zm-.368-1.713a2.5 2.5 0 001.11-.645c.328-.319.55-.746.669-1.281l.358-1.817a2.853 2.853 0 01.723-1.417 2.86 2.86 0 011.37-.805l5.353-1.434a2.808 2.808 0 011.578.03c.526.161.983.441 1.372.84l1.22 1.395c.37.404.776.662 1.219.775.443.113.87.114 1.284.003.638-.17 1.152-.545 1.541-1.122.389-.578.497-1.226.325-1.944a4.401 4.401 0 00-.101-.32 1.514 1.514 0 00-.165-.334l-4.895-8.804a2.804 2.804 0 00-1.388-1.289 2.804 2.804 0 00-1.89-.127l-10.988 2.944a2.806 2.806 0 00-1.574 1.056 2.805 2.805 0 00-.557 1.81L48.378.053c.002.08.031.304.09.67.19.714.61 1.226 1.256 1.536.647.31 1.29.38 1.928.208zm7.464-11.36a.84.84 0 01-.66-.096.873.873 0 01-.419-.552.793.793 0 01.099-.645.9.9 0 01.555-.405.85.85 0 011.044.626.864.864 0 01-.081.656.825.825 0 01-.538.415zm1.65-2.858a.84.84 0 01-.66-.095.873.873 0 01-.42-.552.793.793 0 01.1-.646.9.9 0 01.555-.405.85.85 0 011.044.626.864.864 0 01-.081.656.826.826 0 01-.538.416zm1.208 4.507a.84.84 0 01-.66-.095.873.873 0 01-.42-.552.793.793 0 01.1-.645.9.9 0 01.555-.406.85.85 0 011.043.626.864.864 0 01-.08.656.826.826 0 01-.538.416zm1.65-2.857a.839.839 0 01-.66-.095.873.873 0 01-.42-.552.793.793 0 01.1-.646.9.9 0 01.555-.405.85.85 0 011.043.626.864.864 0 01-.08.656.826.826 0 01-.538.416zm-9.652 4.548a.7.7 0 01-.55-.079.7.7 0 01-.343-.436l-.34-1.268-1.267.34a.7.7 0 01-.55-.08.7.7 0 01-.343-.436.7.7 0 01.079-.55.7.7 0 01.436-.343l1.268-.34-.34-1.267a.7.7 0 01.08-.55.7.7 0 01.436-.343.7.7 0 01.55.079.7.7 0 01.343.436l.34 1.268 1.267-.34a.7.7 0 01.55.08.7.7 0 01.344.436.7.7 0 01-.08.55.7.7 0 01-.436.343l-1.268.34.34 1.267a.7.7 0 01-.08.55.7.7 0 01-.436.343z" fill="url(#paint2_linear_243_506)"/></g><g clip-path="url(#clip2_243_506)"><path d="M347.761 267.268c-.451.121-.891.057-1.319-.19-.429-.248-.704-.597-.825-1.047l-2.717-10.143c-.121-.45-.058-.89.19-1.319.247-.428.596-.703 1.047-.824l19.158-5.133c.451-.121.89-.058 1.319.19.429.247.703.596.824 1.047l2.718 10.142c.12.451.057.891-.19 1.32-.248.428-.597.703-1.048.824l-19.157 5.133zm-.453-1.69l19.157-5.134-2.717-10.142-19.158 5.133 2.718 10.143zm3.878-2.429l1.691-.453-.785-2.93 2.93-.785-.453-1.69-2.93.785-.785-2.93-1.691.453.785 2.93-2.93.785.453 1.69 2.93-.785.785 2.93zm8.401-2.794c.338-.091.6-.297.785-.618.186-.322.234-.652.143-.99a1.26 1.26 0 00-.618-.785 1.26 1.26 0 00-.989-.143c-.339.091-.6.297-.786.618a1.262 1.262 0 00-.143.99c.091.338.297.6.619.785.321.186.651.233.989.143zm1.456-4.708c.338-.091.6-.297.786-.618.185-.322.233-.652.142-.99a1.26 1.26 0 00-.618-.785 1.26 1.26 0 00-.989-.143c-.338.091-.6.297-.786.618a1.258 1.258 0 00-.142.99c.09.338.296.6.618.785.321.186.651.233.989.143z" fill="url(#paint3_linear_243_506)"/></g><g clip-path="url(#clip3_243_506)"><path d="M199.392 67.335l-1.966-2.492-3.277-.511 2.59-2.053.494-3.001 1.929 2.352 3.269.482-2.582 2.081-.457 3.142zm4.492 16.763l-1.936-2.38-3.27-.483 2.59-2.052.449-3.17 1.974 2.52 3.27.483-2.591 2.053-.486 3.03zm-13.531-1.025l-4.079-4.855-6.342-1.018 4.983-4.053 1.113-6.217 4.099 4.82 6.314 1.026-4.955 4.045-1.133 6.252zm-1.117-4.17l.628-3.066 2.436-1.951-3.086-.472-2.077-2.342-.599 3.06-2.464 1.958 3.113.464 2.049 2.35z" fill="url(#paint4_linear_243_506)"/></g><g clip-path="url(#clip4_243_506)"><path d="M298.753 42.674l-2.038-7.606 9.297-2.492 2.038 7.607-9.297 2.491zM288.672 49l-2.944-10.987 9.297-2.492 2.944 10.988L288.672 49zm13.478 6.353l-2.944-10.987 9.297-2.492 2.944 10.988-9.297 2.491zm-10.987 2.944l-2.038-7.607 9.297-2.49 2.038 7.606-9.297 2.491zm-1.254-11.44l5.917-1.586-2.039-7.606-5.916 1.585 2.038 7.607zm13.479 6.353l5.916-1.586-2.038-7.606-5.916 1.585 2.038 7.607zm-3.397-12.678l5.916-1.585-1.132-4.226-5.917 1.585 1.133 4.226zM292.4 56.153l5.917-1.585-1.133-4.226-5.916 1.585 1.132 4.226z" fill="url(#paint5_linear_243_506)"/></g><g clip-path="url(#clip5_243_506)"><path d="M332.387 152.193c.469-.126.838-.421 1.106-.886.268-.464.337-.94.206-1.429-.126-.469-.42-.833-.882-1.092-.461-.259-.927-.325-1.397-.199-.469.125-.839.416-1.11.871-.271.455-.343.917-.217 1.387.131.488.428.866.893 1.134.464.268.931.34 1.401.214zm-11.917 8.718l.4 1.494-4.529-16.904 4.129 15.41zm.853 3.184c-.432.116-.867.051-1.305-.194-.438-.245-.717-.593-.838-1.044l-4.529-16.903c-.116-.432-.047-.868.208-1.309.254-.441.597-.719 1.029-.835l16.904-4.529c.451-.121.892-.053 1.323.204.431.257.704.602.82 1.034l1.012 3.775-1.691.453-1.011-3.775-16.904 4.529 4.529 16.904 16.904-4.53-1.004-3.747 1.691-.453 1.004 3.747c.12.451.057.891-.191 1.319-.247.429-.596.704-1.047.825l-16.904 4.529zm8.78-7.576c-.638.171-1.196.119-1.672-.156s-.797-.723-.964-1.342l-1.713-6.396c-.171-.638-.118-1.191.159-1.658.278-.467.736-.786 1.375-.957l7.606-2.038c.639-.171 1.195-.124 1.669.142.474.265.796.717.967 1.356l1.714 6.395c.166.62.111 1.168-.164 1.644-.275.477-.731.8-1.37.971l-7.607 2.039zm7.548-3.835l-1.909-7.127-8.396 2.249 1.91 7.128 8.395-2.25z" fill="url(#paint6_linear_243_506)"/></g><g clip-path="url(#clip6_243_506)"><path d="M430.51 130.913l9.072-2.431-.453-1.69-9.072 2.431.453 1.69zm-1.283-4.789l9.071-2.431-.453-1.69-9.071 2.43.453 1.691zm-.223 10.326c-.451.121-.89.057-1.319-.19-.429-.248-.703-.597-.824-1.048l-5.133-19.157c-.121-.451-.058-.891.19-1.319.247-.429.596-.704 1.047-.824l10.17-2.726 7.823 4.517 3.933 14.678c.121.451.058.891-.19 1.319-.247.429-.596.704-1.047.824l-14.65 3.926zm5.143-18.107l-1.404-5.24-9.325 2.499 5.133 19.157 14.65-3.925-3.729-13.917-5.325 1.426z" fill="url(#paint7_linear_243_506)"/></g><g clip-path="url(#clip7_243_506)"><path d="M458.98 237.165l9.072-2.431-.453-1.69-9.072 2.431.453 1.69zm-1.283-4.789l9.071-2.431-.453-1.691-9.071 2.431.453 1.691zm-.223 10.326c-.451.12-.89.057-1.319-.19-.429-.248-.703-.597-.824-1.048l-5.133-19.157c-.121-.451-.058-.891.19-1.319.247-.429.596-.704 1.047-.825l10.171-2.725 7.823 4.517 3.933 14.678c.12.451.057.89-.191 1.319-.247.429-.596.703-1.047.824l-14.65 3.926zm5.143-18.107l-1.404-5.24-9.325 2.499 5.133 19.157 14.65-3.925-3.729-13.918-5.325 1.427z" fill="#fff"/></g><g clip-path="url(#clip8_243_506)"><path d="M222.155 188.463l1.55-.416-.393-1.465c1.111-.438 1.909-1.029 2.394-1.773.485-.744.599-1.595.342-2.553-.256-.958-.738-1.664-1.443-2.119-.706-.455-1.78-.782-3.222-.979-1.21-.159-2.107-.351-2.691-.577-.584-.226-.956-.64-1.117-1.241-.156-.582-.068-1.099.264-1.55.332-.452.864-.775 1.596-.972.564-.151 1.087-.15 1.571.002s.937.454 1.36.904l1.178-1.01c-.495-.572-1.056-.975-1.683-1.21-.626-.235-1.307-.294-2.04-.178l-.385-1.437-1.55.416.385 1.436c-.923.388-1.584.943-1.985 1.664-.4.722-.487 1.505-.261 2.35.247.921.725 1.578 1.434 1.971.71.394 1.691.675 2.943.842 1.4.189 2.391.432 2.973.728.583.297.958.755 1.124 1.375.161.601.042 1.152-.358 1.651-.4.5-.975.85-1.726 1.052a3.377 3.377 0 01-2.124-.096c-.684-.259-1.234-.716-1.651-1.369l-1.308.864c.626.758 1.292 1.309 1.998 1.654.706.344 1.512.515 2.418.514l.407 1.522zm1.67 2.964c-1.54.413-3.075.507-4.604.283a11.825 11.825 0 01-4.241-1.46 11.854 11.854 0 01-3.386-2.943 11.282 11.282 0 01-2.057-4.129 11.361 11.361 0 01-.291-4.633c.225-1.53.713-2.939 1.465-4.227a11.944 11.944 0 012.946-3.371 11.284 11.284 0 014.129-2.058 11.36 11.36 0 014.633-.29c1.53.224 2.937.707 4.223 1.45a11.783 11.783 0 013.368 2.932c.959 1.213 1.647 2.599 2.065 4.158.413 1.54.507 3.075.283 4.604a11.978 11.978 0 01-1.447 4.238 11.668 11.668 0 01-2.928 3.381 11.356 11.356 0 01-4.158 2.065zm-.453-1.69c2.667-.715 4.68-2.256 6.039-4.623 1.359-2.367 1.683-4.874.974-7.523-.715-2.667-2.251-4.681-4.609-6.042-2.357-1.361-4.87-1.684-7.537-.97-2.648.71-4.657 2.245-6.028 4.605-1.371 2.36-1.699 4.874-.984 7.541.71 2.648 2.249 4.656 4.619 6.024 2.369 1.368 4.878 1.697 7.526.988z" fill="url(#paint8_linear_243_506)"/></g><g clip-path="url(#clip9_243_506)"><path d="M408.161 29.362c-2.104.564-4.298.488-6.584-.229-2.285-.716-4.205-1.721-5.76-3.016l1.034 3.86-1.69.453-1.812-6.762 6.762-1.811.453 1.69-3.86 1.034c1.345 1.19 3.06 2.124 5.145 2.804 2.084.68 4.037.775 5.859.287a10.736 10.736 0 003.929-1.959 11.235 11.235 0 002.794-3.21 11.217 11.217 0 001.382-4.023 10.726 10.726 0 00-.268-4.383l1.69-.452c.458 1.709.565 3.401.319 5.078a12.98 12.98 0 01-1.605 4.657 12.988 12.988 0 01-3.231 3.72c-1.329 1.05-2.848 1.804-4.557 2.262zm-1.972-4.091l-.408-1.522c-.905.001-1.711-.17-2.417-.514-.707-.345-1.373-.896-1.999-1.654l1.309-.864c.416.653.967 1.11 1.65 1.37.684.26 1.392.29 2.124.095.752-.202 1.327-.552 1.727-1.052.399-.5.518-1.05.357-1.65a2.093 2.093 0 00-1.123-1.376c-.583-.296-1.574-.54-2.973-.728-1.253-.167-2.234-.448-2.943-.842-.71-.393-1.188-1.05-1.434-1.97-.222-.827-.129-1.607.279-2.34.407-.733 1.063-1.292 1.967-1.675l-.385-1.436 1.549-.416.385 1.437c.734-.116 1.414-.057 2.041.178.626.235 1.187.638 1.683 1.21l-1.179 1.01c-.423-.45-.876-.752-1.359-.904-.484-.152-1.008-.153-1.571-.002-.733.197-1.265.52-1.597.972-.332.451-.42.968-.264 1.55.161.601.534 1.015 1.118 1.24.584.227 1.481.419 2.691.578 1.442.197 2.516.524 3.221.979.706.455 1.187 1.161 1.444 2.12.126.469.157.923.094 1.363-.064.44-.213.842-.447 1.207a3.84 3.84 0 01-.956.996 5.86 5.86 0 01-1.427.76l.392 1.464-1.549.416zm-13.746-4.983c-.458-1.71-.564-3.402-.319-5.078a13 13 0 011.606-4.658 12.988 12.988 0 013.231-3.72c1.329-1.05 2.848-1.804 4.557-2.262 2.103-.564 4.298-.487 6.583.229 2.286.716 4.206 1.721 5.761 3.016l-1.035-3.86 1.691-.453 1.812 6.762-6.762 1.812-.453-1.69 3.86-1.035c-1.346-1.19-3.056-2.125-5.131-2.807-2.075-.682-4.033-.777-5.873-.284a10.736 10.736 0 00-3.929 1.96 11.22 11.22 0 00-2.794 3.209 11.238 11.238 0 00-1.383 4.024 10.744 10.744 0 00.269 4.382l-1.691.453z" fill="url(#paint9_linear_243_506)"/></g><defs><linearGradient id="paint0_linear_243_506" x1="106.183" y1="204.258" x2="122.078" y2="202.464" gradientUnits="userSpaceOnUse"><stop stop-color="#CDA6FF"/><stop offset="1" stop-color="#87E097"/></linearGradient><linearGradient id="paint1_linear_243_506" x1="75.424" y1="99.355" x2="97.004" y2="98.625" gradientUnits="userSpaceOnUse"><stop stop-color="#CDA6FF"/><stop offset="1" stop-color="#87E097"/></linearGradient><linearGradient id="paint2_linear_243_506" x1="47.143" y1="-10.054" x2="68.723" y2="-10.784" gradientUnits="userSpaceOnUse"><stop stop-color="#CDA6FF"/><stop offset="1" stop-color="#87E097"/></linearGradient><linearGradient id="paint3_linear_243_506" x1="346.029" y1="256.076" x2="365.487" y2="256.334" gradientUnits="userSpaceOnUse"><stop stop-color="#CDA6FF"/><stop offset="1" stop-color="#87E097"/></linearGradient><linearGradient id="paint4_linear_243_506" x1="181.069" y1="68.819" x2="202.877" y2="66.753" gradientUnits="userSpaceOnUse"><stop stop-color="#CDA6FF"/><stop offset="1" stop-color="#87E097"/></linearGradient><linearGradient id="paint5_linear_243_506" x1="289.377" y1="41.291" x2="307.24" y2="39.606" gradientUnits="userSpaceOnUse"><stop stop-color="#CDA6FF"/><stop offset="1" stop-color="#87E097"/></linearGradient><linearGradient id="paint6_linear_243_506" x1="317.998" y1="147.503" x2="336.888" y2="145.903" gradientUnits="userSpaceOnUse"><stop stop-color="#CDA6FF"/><stop offset="1" stop-color="#87E097"/></linearGradient><linearGradient id="paint7_linear_243_506" x1="424.755" y1="118.162" x2="440.655" y2="116.13" gradientUnits="userSpaceOnUse"><stop stop-color="#CDA6FF"/><stop offset="1" stop-color="#87E097"/></linearGradient><linearGradient id="paint8_linear_243_506" x1="210.572" y1="175.553" x2="230.42" y2="173.68" gradientUnits="userSpaceOnUse"><stop stop-color="#CDA6FF"/><stop offset="1" stop-color="#87E097"/></linearGradient><linearGradient id="paint9_linear_243_506" x1="393.583" y1="11.9" x2="415.415" y2="9.84" gradientUnits="userSpaceOnUse"><stop stop-color="#CDA6FF"/><stop offset="1" stop-color="#87E097"/></linearGradient><clipPath id="clip0_243_506"><path fill="#fff" transform="rotate(-15 385.685 -215.577)" d="M0 0h28v28H0z"/></clipPath><clipPath id="clip1_243_506"><path fill="#fff" transform="rotate(-15 -43.975 -162.875)" d="M0 0h28v28H0z"/></clipPath><clipPath id="clip2_243_506"><path fill="#fff" transform="rotate(-15 1111.216 -1161.11)" d="M0 0h28v28H0z"/></clipPath><clipPath id="clip3_243_506"><path fill="#fff" transform="rotate(-15 330.684 -633.343)" d="M0 0h28v28H0z"/></clipPath><clipPath id="clip4_243_506"><path fill="#fff" transform="rotate(-15 275.685 -1051.11)" d="M0 0h28v28H0z"/></clipPath><clipPath id="clip5_243_506"><path fill="#fff" transform="rotate(-15 693.453 -1106.11)" d="M0 0h28v28H0z"/></clipPath><clipPath id="clip6_243_506"><path fill="#fff" transform="rotate(-15 638.45 -1523.877)" d="M0 0h28v28H0z"/></clipPath><clipPath id="clip7_243_506"><path fill="#fff" transform="rotate(-15 1056.216 -1578.876)" d="M0 0h28v28H0z"/></clipPath><clipPath id="clip8_243_506"><path fill="#fff" transform="rotate(-15 748.452 -688.342)" d="M0 0h28v28H0z"/></clipPath><clipPath id="clip9_243_506"><path fill="#fff" transform="rotate(-15 220.685 -1468.877)" d="M0 0h28v28H0z"/></clipPath></defs></svg>