<svg width="89" height="17" viewBox="0 0 89 17" fill="none" xmlns="http://www.w3.org/2000/svg"><path d="M7.731 16.185c-2.214 0-3.917-.698-5.106-2.092C1.422 12.705.82 10.897.82 8.668c0-2.242.602-4.067 1.805-5.475C3.828 1.805 5.53 1.11 7.731 1.11c1.812 0 3.282.49 4.41 1.467 1.141.984 1.784 2.225 1.927 3.722h-2.942a2.865 2.865 0 00-1.005-1.846c-.56-.478-1.357-.718-2.39-.718-1.326 0-2.314.441-2.963 1.323-.67.875-1.005 2.078-1.005 3.61 0 1.537.335 2.734 1.005 3.588.65.882 1.637 1.323 2.963 1.323 1.06 0 1.89-.27 2.492-.81a3.316 3.316 0 001.056-2.082H8.152V8.125h6.06v1.538c0 1.969-.595 3.548-1.784 4.737-1.19 1.19-2.755 1.785-4.697 1.785zm17.36-5.896l3.65 5.506V16H25.43l-3.384-5.373h-2.482V16h-2.87V1.296h6.45c1.49 0 2.686.44 3.588 1.323.882.881 1.323 1.975 1.323 3.28 0 1.047-.267 1.956-.8 2.728-.506.76-1.227 1.313-2.164 1.662zm-5.527-6.41v4.184h3.425c.684 0 1.21-.205 1.58-.615.348-.39.522-.899.522-1.528 0-.587-.174-1.076-.523-1.466-.362-.383-.888-.574-1.579-.574h-3.425zM30.762 16V1.296h6.296c1.476 0 2.652.448 3.527 1.343.882.903 1.323 2.05 1.323 3.445 0 1.436-.441 2.605-1.323 3.507-.91.91-2.085 1.364-3.527 1.364h-3.425V16h-2.871zm2.87-7.619h2.903c1.627 0 2.44-.765 2.44-2.297 0-.697-.212-1.247-.636-1.65-.444-.383-1.045-.575-1.804-.575h-2.902v4.522z" fill="url(#paint0_linear_153_1167)"/><path d="M44.4 16V1.296h2.87v12.12h6.789V16h-9.66zm14.457.185c-1.189 0-2.119-.322-2.789-.964-.683-.616-1.025-1.426-1.025-2.43 0-1.053.37-1.88 1.107-2.482.732-.601 1.832-.902 3.302-.902.97 0 1.78.113 2.43.338v-.943c0-.486-.154-.872-.461-1.159-.315-.294-.79-.44-1.425-.44-.588 0-1.036.132-1.344.399-.32.28-.482.615-.482 1.005h-2.645c0-1.087.396-1.976 1.19-2.666.779-.697 1.893-1.046 3.342-1.046 1.456 0 2.59.355 3.404 1.066.828.746 1.241 1.682 1.241 2.81V16H62.2l-.215-1.138h-.082c-.677.882-1.692 1.323-3.046 1.323zm.677-2.225c.718 0 1.292-.195 1.723-.585.417-.396.625-.872.625-1.425v-.236c-.615-.24-1.336-.359-2.163-.359-.602 0-1.063.12-1.385.359a1.09 1.09 0 00-.502.943c0 .403.147.721.44.954.295.232.715.348 1.262.348zm13.433 2.225c-1.306 0-2.31-.455-3.015-1.364h-.092L69.573 16H67.05V.455h2.81V6.26h.092c.704-.91 1.71-1.364 3.015-1.364 1.388 0 2.481.523 3.281 1.569.8 1.046 1.2 2.406 1.2 4.08 0 1.703-.4 3.067-1.2 4.092-.827 1.033-1.92 1.549-3.281 1.549zm-2.625-3.374c.396.602 1.008.902 1.835.902s1.443-.294 1.846-.881c.376-.582.564-1.344.564-2.287 0-.964-.188-1.736-.564-2.317-.41-.575-1.025-.862-1.846-.862-.84 0-1.452.294-1.835.882-.39.567-.585 1.333-.585 2.297 0 .943.195 1.699.585 2.266zm13.186 3.374c-1.538 0-2.707-.35-3.507-1.046-.8-.698-1.21-1.634-1.23-2.81h2.81c0 .438.167.793.502 1.066.342.28.817.42 1.425.42.554 0 1.002-.098 1.344-.296.314-.185.471-.42.471-.708 0-.54-.42-.892-1.261-1.056l-1.764-.328c-2.132-.404-3.199-1.511-3.199-3.323 0-.93.393-1.698 1.18-2.307.772-.601 1.828-.902 3.168-.902 1.347 0 2.427.335 3.24 1.005.807.683 1.21 1.558 1.21 2.625h-2.769a1.32 1.32 0 00-.44-1.005c-.315-.253-.742-.38-1.282-.38-.486 0-.862.09-1.128.267-.28.185-.42.424-.42.718 0 .513.369.84 1.107.984l2 .36c.99.184 1.773.533 2.347 1.045.561.5.841 1.258.841 2.277 0 1.052-.434 1.883-1.302 2.491-.854.602-1.969.903-3.343.903z" fill="#fff"/><defs><linearGradient id="paint0_linear_153_1167" x1="11.343" y1="1.092" x2="69.073" y2="34.552" gradientUnits="userSpaceOnUse"><stop stop-color="#CDA6FF"/><stop offset="1" stop-color="#87E097"/></linearGradient></defs></svg>