<svg width="28" height="28" viewBox="0 0 28 28" fill="none" xmlns="http://www.w3.org/2000/svg"><path d="M4.083 24.5c-.466 0-.875-.175-1.225-.525-.35-.35-.525-.758-.525-1.225v-14c0-.467.175-.875.525-1.225.35-.35.759-.525 1.225-.525h5.25V4.083c0-.466.175-.875.525-1.225.35-.35.759-.525 1.225-.525h5.834c.466 0 .875.175 1.225.525.35.35.525.759.525 1.225V7h5.25c.466 0 .875.175 1.225.525.35.35.525.758.525 1.225v14c0 .467-.175.875-.525 1.225-.35.35-.759.525-1.225.525H4.083zm0-1.75h19.834v-14H4.083v14zm7-15.75h5.834V4.083h-5.834V7z" fill="#fff"/></svg>