<svg width="28" height="28" viewBox="0 0 28 28" fill="none" xmlns="http://www.w3.org/2000/svg"><path d="M2.917 22.167c-.486 0-.9-.17-1.24-.51a1.69 1.69 0 01-.51-1.24V7.583c0-.486.17-.899.51-1.24.34-.34.754-.51 1.24-.51H15.75c.486 0 .9.17 1.24.51.34.341.51.754.51 1.24v12.834c0 .486-.17.899-.51 1.24-.34.34-.754.51-1.24.51H2.917zM21 12.833c-.33 0-.608-.111-.831-.335a1.129 1.129 0 01-.336-.831V7c0-.33.112-.608.336-.831.223-.224.5-.336.831-.336h4.667c.33 0 .607.112.83.336.224.223.336.5.336.831v4.667c0 .33-.111.607-.335.831-.224.224-.5.335-.831.335H21zm.583-1.75h3.5v-3.5h-3.5v3.5zM2.917 20.417H15.75V7.583H2.917v12.834zM5.542 17.5h7.583a.395.395 0 00.38-.233.45.45 0 00-.03-.467l-2.188-2.917a.442.442 0 00-.35-.175.442.442 0 00-.35.175l-1.837 2.45-1.254-1.662a.442.442 0 00-.35-.175.442.442 0 00-.35.175L5.192 16.8a.428.428 0 00-.015.467c.088.155.21.233.365.233zM21 22.167c-.33 0-.608-.112-.831-.336a1.129 1.129 0 01-.336-.831v-4.667c0-.33.112-.607.336-.83.223-.225.5-.336.831-.336h4.667c.33 0 .607.111.83.335.224.224.336.5.336.831V21c0 .33-.111.608-.335.831-.224.224-.5.336-.831.336H21zm.583-1.75h3.5v-3.5h-3.5v3.5z" fill="#fff"/></svg>