<svg width="28" height="28" viewBox="0 0 28 28" fill="none" xmlns="http://www.w3.org/2000/svg"><path d="M13.97 22.37a.736.736 0 00.555-.247.806.806 0 00.233-.569v-.7c1.167-.136 2.086-.53 2.757-1.181.67-.651 1.006-1.483 1.006-2.494 0-1.01-.277-1.818-.831-2.42-.555-.603-1.512-1.128-2.873-1.576-1.225-.408-2.066-.811-2.523-1.21-.457-.399-.686-.919-.686-1.56 0-.603.22-1.075.657-1.415.437-.34 1.035-.51 1.793-.51a2.9 2.9 0 011.255.262c.369.175.69.438.962.788.136.155.301.262.496.32a.69.69 0 00.554-.058.744.744 0 00.423-.467.601.601 0 00-.102-.583 3.756 3.756 0 00-1.21-1.108 3.999 3.999 0 00-1.62-.496v-.7a.757.757 0 00-.233-.554.757.757 0 00-.554-.234.806.806 0 00-.569.234.736.736 0 00-.248.554v.7c-.991.136-1.774.496-2.347 1.079-.574.583-.86 1.313-.86 2.188 0 .952.247 1.71.743 2.274.496.564 1.415 1.1 2.756 1.605 1.38.525 2.295.982 2.742 1.37.447.39.67.895.67 1.517 0 .642-.262 1.181-.787 1.619-.525.438-1.167.656-1.925.656-.642 0-1.23-.155-1.764-.466a3.166 3.166 0 01-1.24-1.313 1.016 1.016 0 00-.394-.364.626.626 0 00-.51-.044c-.253.097-.423.248-.51.452-.088.204-.064.413.072.627.39.642.851 1.162 1.386 1.56.534.399 1.171.695 1.91.89v.787a.74.74 0 00.248.555.806.806 0 00.569.233zm.03 3.297c-1.653 0-3.189-.297-4.608-.89a11.386 11.386 0 01-3.705-2.465 11.386 11.386 0 01-2.464-3.704c-.593-1.42-.89-2.955-.89-4.608 0-1.633.297-3.16.89-4.58a11.386 11.386 0 012.464-3.703 11.581 11.581 0 013.705-2.48c1.42-.602 2.955-.904 4.608-.904 1.633 0 3.16.302 4.58.905a11.568 11.568 0 013.703 2.479 11.582 11.582 0 012.48 3.704c.602 1.42.904 2.946.904 4.579 0 1.653-.302 3.189-.905 4.608a11.582 11.582 0 01-2.479 3.704 11.385 11.385 0 01-3.704 2.465c-1.42.593-2.946.89-4.579.89zm0-1.75c2.82 0 5.177-.948 7.073-2.844 1.896-1.896 2.844-4.253 2.844-7.073 0-2.82-.948-5.177-2.844-7.073C19.177 5.031 16.819 4.083 14 4.083c-2.82 0-5.177.948-7.073 2.844C5.031 8.823 4.083 11.181 4.083 14c0 2.82.948 5.177 2.844 7.073 1.896 1.896 4.254 2.844 7.073 2.844z" fill="#fff"/></svg>