<svg width="28" height="28" viewBox="0 0 28 28" fill="none" xmlns="http://www.w3.org/2000/svg"><path d="M10.5 23.333c-2.606 0-4.813-.904-6.62-2.712C2.07 18.813 1.166 16.606 1.166 14c0-2.606.904-4.813 2.712-6.62C5.687 5.57 7.894 4.666 10.5 4.666c2.605 0 4.813.904 6.62 2.712 1.81 1.808 2.713 4.015 2.713 6.621 0 2.605-.904 4.813-2.712 6.62-1.808 1.81-4.015 2.713-6.621 2.713zm0-1.75c2.1 0 3.889-.739 5.367-2.216 1.477-1.478 2.216-3.267 2.216-5.367s-.739-3.889-2.216-5.367C14.389 7.156 12.6 6.417 10.5 6.417s-3.889.739-5.367 2.216C3.656 10.111 2.917 11.9 2.917 14s.739 3.889 2.216 5.367c1.478 1.477 3.267 2.216 5.367 2.216zm-.875-3.791h1.75v-5.834h2.333v-1.166H7.292v1.166h2.333v5.834zM22.867 9.1l-1.225-2.742L18.9 5.133l2.742-1.225 1.225-2.741 1.225 2.741 2.741 1.225-2.741 1.225L22.867 9.1zm0 17.733l-1.225-2.741-2.742-1.225 2.742-1.225 1.225-2.742 1.225 2.742 2.741 1.225-2.741 1.225-1.225 2.741z" fill="#fff"/></svg>