<svg width="28" height="28" viewBox="0 0 28 28" fill="none" xmlns="http://www.w3.org/2000/svg"><path d="M14 12.833c-3.13 0-5.663-.476-7.598-1.429C4.467 10.451 3.5 9.372 3.5 8.167c0-1.225.967-2.31 2.902-3.252C8.337 3.972 10.87 3.5 14 3.5s5.663.472 7.598 1.415c1.935.943 2.902 2.027 2.902 3.252 0 1.205-.967 2.284-2.902 3.237-1.935.953-4.467 1.43-7.598 1.43zm0 5.834c-2.839 0-5.299-.428-7.38-1.284-2.08-.855-3.12-1.886-3.12-3.091v-2.917c0 .758.365 1.415 1.094 1.969.729.554 1.633 1.01 2.712 1.37 1.08.36 2.227.623 3.442.788 1.215.165 2.3.248 3.252.248.972 0 2.061-.083 3.267-.248a19.813 19.813 0 003.427-.773c1.079-.35 1.983-.802 2.712-1.356.73-.554 1.094-1.22 1.094-1.998v2.917c0 1.205-1.04 2.236-3.12 3.091-2.081.856-4.541 1.284-7.38 1.284zm0 5.833c-2.839 0-5.299-.428-7.38-1.283-2.08-.856-3.12-1.886-3.12-3.092v-2.917c0 .759.365 1.415 1.094 1.97.729.553 1.633 1.01 2.712 1.37 1.08.36 2.227.622 3.442.787 1.215.166 2.3.248 3.252.248.972 0 2.061-.082 3.267-.248a19.813 19.813 0 003.427-.773c1.079-.35 1.983-.802 2.712-1.356.73-.554 1.094-1.22 1.094-1.998v2.917c0 1.206-1.04 2.236-3.12 3.092-2.081.855-4.541 1.283-7.38 1.283z" fill="#fff"/></svg>