<svg width="28" height="28" viewBox="0 0 28 28" fill="none" xmlns="http://www.w3.org/2000/svg"><path d="M13.154 22.37h1.604v-1.516c1.187-.136 2.11-.5 2.771-1.093.661-.594.992-1.386.992-2.378 0-.991-.282-1.798-.846-2.42-.564-.623-1.517-1.216-2.858-1.78-1.128-.466-1.945-.884-2.45-1.254-.506-.37-.759-.865-.759-1.487 0-.603.22-1.08.657-1.43.437-.35 1.035-.524 1.793-.524.584 0 1.09.136 1.517.408.428.272.788.68 1.08 1.225l1.4-.671c-.331-.68-.769-1.215-1.313-1.604-.545-.389-1.186-.622-1.925-.7V5.658h-1.604v1.488c-.992.136-1.775.5-2.348 1.094-.574.593-.86 1.327-.86 2.202 0 .953.29 1.71.874 2.275.584.564 1.459 1.089 2.625 1.575 1.303.544 2.197 1.035 2.684 1.473.486.437.729.977.729 1.618 0 .623-.258 1.123-.773 1.503-.515.379-1.162.568-1.94.568a3.378 3.378 0 01-2.027-.642c-.593-.427-1.006-1.01-1.24-1.75l-1.487.496c.408.895.91 1.6 1.502 2.115.593.515 1.327.89 2.202 1.123v1.575zM14 25.668c-1.594 0-3.101-.307-4.52-.919a11.834 11.834 0 01-3.72-2.508 11.834 11.834 0 01-2.508-3.72A11.289 11.289 0 012.333 14c0-1.614.307-3.13.92-4.55A11.66 11.66 0 015.76 5.746a11.96 11.96 0 013.72-2.494A11.289 11.289 0 0114 2.333c1.614 0 3.13.307 4.55.92a11.781 11.781 0 013.704 2.493 11.782 11.782 0 012.494 3.704 11.36 11.36 0 01.919 4.55 11.29 11.29 0 01-.919 4.52 11.96 11.96 0 01-2.494 3.72 11.66 11.66 0 01-3.704 2.508 11.36 11.36 0 01-4.55.919zm0-1.75c2.761 0 5.104-.968 7.03-2.902 1.924-1.935 2.887-4.273 2.887-7.015 0-2.761-.963-5.104-2.888-7.03C19.104 5.047 16.761 4.084 14 4.084c-2.742 0-5.08.963-7.015 2.888C5.051 8.896 4.083 11.239 4.083 14c0 2.742.968 5.08 2.902 7.015 1.935 1.934 4.273 2.902 7.015 2.902z" fill="#fff"/></svg>