<svg width="28" height="28" viewBox="0 0 28 28" fill="none" xmlns="http://www.w3.org/2000/svg"><path d="M9.625 14l2.042-2.042a.873.873 0 00.262-.641.873.873 0 00-.262-.642.873.873 0 00-.642-.263.873.873 0 00-.642.263l-2.712 2.712a.888.888 0 00-.204.292.856.856 0 00-.059.321c0 .117.02.224.059.32a.888.888 0 00.204.293l2.741 2.741a.873.873 0 00.642.263.873.873 0 00.642-.263.873.873 0 00.262-.642.873.873 0 00-.262-.641L9.625 14zm8.75 0l-2.07 2.07a.873.873 0 00-.263.642c0 .253.087.467.262.642a.873.873 0 00.642.263.873.873 0 00.641-.263l2.742-2.741a.888.888 0 00.204-.292.856.856 0 00.059-.321.856.856 0 00-.059-.32.888.888 0 00-.204-.293l-2.742-2.741a.616.616 0 00-.291-.204 1.1 1.1 0 00-.35-.059.846.846 0 00-.642.262.873.873 0 00-.262.643c0 .252.087.466.262.641L18.375 14zM5.25 24.5c-.467 0-.875-.175-1.225-.525-.35-.35-.525-.758-.525-1.225V5.25c0-.467.175-.875.525-1.225.35-.35.758-.525 1.225-.525h17.5c.467 0 .875.175 1.225.525.35.35.525.758.525 1.225v17.5c0 .467-.175.875-.525 1.225-.35.35-.758.525-1.225.525H5.25zm0-1.75h17.5V5.25H5.25v17.5z" fill="#fff"/></svg>