<svg width="28" height="28" viewBox="0 0 28 28" fill="none" xmlns="http://www.w3.org/2000/svg"><path d="M22.517 9.48l-1.255-2.918-3.033-1.341 3.034-1.313 1.254-2.77 1.254 2.77 3.033 1.313-3.033 1.341-1.254 2.917zm0 17.353l-1.255-2.8-3.033-1.312 3.034-1.313 1.254-2.946 1.254 2.946 3.033 1.313-3.033 1.312-1.254 2.8zM9.713 22.342l-2.684-5.746-5.862-2.625 5.862-2.625 2.684-5.717 2.712 5.717 5.833 2.625-5.833 2.625-2.712 5.746zm0-4.317l1.4-2.8 2.858-1.254-2.858-1.254-1.4-2.8-1.371 2.8-2.888 1.254 2.888 1.254 1.37 2.8z" fill="#fff"/></svg>