<svg width="23" height="23" viewBox="0 0 23 23" fill="none" xmlns="http://www.w3.org/2000/svg"><path d="M23 4.175a9.607 9.607 0 01-2.71.731 4.677 4.677 0 002.073-2.563 9.616 9.616 0 01-2.994 1.12A4.754 4.754 0 0015.924 2c-2.608 0-4.72 2.075-4.72 4.638 0 .366.043.718.122 1.056A13.477 13.477 0 011.599 2.85a4.568 4.568 0 00-.637 2.33A4.62 4.62 0 003.06 9.043a4.762 4.762 0 01-2.138-.58v.06c0 2.248 1.627 4.121 3.784 4.546a4.839 4.839 0 01-2.13.082c.6 1.842 2.344 3.185 4.408 3.222a9.572 9.572 0 01-5.858 1.983c-.381 0-.758-.023-1.125-.064a13.527 13.527 0 007.234 2.084c8.68 0 13.427-7.065 13.427-13.197a11.9 11.9 0 00-.014-.6A9.63 9.63 0 0023 4.176z" fill="#fff"/></svg>