<svg width="28" height="28" viewBox="0 0 28 28" fill="none" xmlns="http://www.w3.org/2000/svg"><path d="M25.864 27.644l-9.53-9.545a8.712 8.712 0 01-2.769 1.604 9.776 9.776 0 01-3.362.574c-2.847 0-5.26-.99-7.237-2.97C.99 15.327 0 12.937 0 10.139c0-2.8.989-5.188 2.966-7.169C4.944.99 7.343 0 10.164 0c2.795 0 5.174.99 7.138 2.97 1.965 1.98 2.947 4.37 2.947 7.169a9.892 9.892 0 01-.554 3.287 10.056 10.056 0 01-1.661 2.97l9.61 9.545c.237.21.356.481.356.812 0 .33-.132.627-.395.89a1.183 1.183 0 01-.87.357c-.343 0-.633-.119-.87-.356zm-15.7-9.743c2.135 0 3.955-.76 5.457-2.277 1.503-1.518 2.255-3.347 2.255-5.485 0-2.139-.752-3.967-2.255-5.486-1.502-1.518-3.322-2.277-5.457-2.277-2.162 0-4.001.76-5.517 2.277C3.13 6.172 2.373 8 2.373 10.14c0 2.138.758 3.967 2.274 5.485 1.516 1.518 3.355 2.277 5.517 2.277z" fill="#fff"/></svg>