<svg width="28" height="21" viewBox="0 0 28 21" fill="none" xmlns="http://www.w3.org/2000/svg"><path d="M1.663 20.333c-.467 0-.86-.17-1.182-.51A1.74 1.74 0 010 18.583h4.112c-.466 0-.875-.175-1.224-.525-.35-.35-.526-.758-.526-1.225V2.25c0-.467.175-.875.526-1.225C3.238.675 3.646.5 4.112.5h19.775c.467 0 .875.175 1.226.525.35.35.524.758.524 1.225v14.583c0 .467-.175.875-.524 1.225-.35.35-.759.525-1.226.525H28c0 .486-.17.9-.51 1.24-.34.34-.754.51-1.24.51H1.663zM14 19.692a.955.955 0 00.7-.292.955.955 0 00.292-.7.955.955 0 00-.292-.7.955.955 0 00-.7-.292.955.955 0 00-.7.292.955.955 0 00-.292.7c0 .272.098.506.292.7a.955.955 0 00.7.292zm-9.887-2.859h19.774V2.25H4.113v14.583z" fill="#fff"/></svg>