<svg width="27" height="26" viewBox="0 0 27 26" fill="none" xmlns="http://www.w3.org/2000/svg"><path d="M21.813 7.867a.582.582 0 01-.265-.067.42.42 0 01-.198-.233L20.359 5.4l-2.148-1a.42.42 0 01-.231-.2.597.597 0 01-.066-.267c0-.089.022-.177.066-.266a.42.42 0 01.231-.2l2.148-1L21.349.3a.42.42 0 01.2-.233.582.582 0 01.264-.067c.088 0 .176.022.264.067a.42.42 0 01.198.233l.991 2.167 2.148 1c.11.044.187.11.231.2a.595.595 0 01.066.266.595.595 0 01-.066.267.419.419 0 01-.231.2l-2.148 1-.99 2.167a.42.42 0 01-.2.233.582.582 0 01-.264.067zm2.775 9.633a.582.582 0 01-.264-.067.434.434 0 01-.199-.2l-.528-1.166-1.157-.534c-.044-.022-.132-.177-.264-.466 0-.09.022-.178.066-.267a.434.434 0 01.198-.2l1.157-.533.528-1.167c.022-.044.177-.133.463-.267.088 0 .176.023.264.067a.434.434 0 01.199.2l.528 1.167 1.157.533c.044.022.132.178.264.467a.595.595 0 01-.066.266.434.434 0 01-.198.2l-1.157.534-.528 1.166c-.022.045-.177.134-.463.267zM8.199 26a.909.909 0 01-.644-.267 1.132 1.132 0 01-.347-.633l-.231-2.167a3.39 3.39 0 01-.958-.3 3.405 3.405 0 01-.86-.566l-1.784.766a.803.803 0 01-.677.034 1.116 1.116 0 01-.545-.434L.17 19.2a.978.978 0 01-.148-.75.957.957 0 01.446-.617L2.186 16.7a3.632 3.632 0 01-.165-1c0-.289.055-.622.165-1L.468 13.567a.957.957 0 01-.446-.617.978.978 0 01.148-.75l1.983-3.233c.132-.2.314-.345.545-.434a.803.803 0 01.677.034l1.785.766c.242-.222.528-.41.859-.566.33-.156.65-.256.958-.3L7.208 6.3c.044-.244.16-.456.347-.633A.909.909 0 018.2 5.4h3.767a.91.91 0 01.645.267c.187.177.302.389.346.633l.232 2.167c.308.044.627.144.958.3.33.155.617.344.859.566l1.784-.766a.803.803 0 01.678-.034c.23.09.413.234.545.434l1.982 3.233a.977.977 0 01.149.75.957.957 0 01-.446.617L17.98 14.7c.11.378.165.711.165 1 0 .289-.055.622-.165 1l1.718 1.133a.957.957 0 01.446.617.977.977 0 01-.149.75l-1.982 3.233c-.132.2-.314.345-.545.434a.803.803 0 01-.678-.034l-1.784-.766a3.406 3.406 0 01-.86.566c-.33.156-.649.256-.957.3l-.232 2.167c-.044.244-.16.456-.347.633a.909.909 0 01-.644.267H8.2zm1.884-6.467c1.101 0 2.01-.36 2.726-1.083.716-.722 1.074-1.639 1.074-2.75s-.358-2.028-1.074-2.75c-.716-.722-1.625-1.083-2.726-1.083-1.102 0-2.01.36-2.726 1.083-.716.722-1.074 1.639-1.074 2.75s.358 2.028 1.074 2.75c.716.722 1.624 1.083 2.726 1.083zm0-2c-.529 0-.964-.172-1.305-.516-.342-.345-.512-.784-.512-1.317 0-.533.17-.972.512-1.317.341-.344.776-.516 1.305-.516.528 0 .963.172 1.305.516.341.345.512.784.512 1.317 0 .533-.17.972-.512 1.317-.341.344-.777.516-1.305.516zM8.959 24h2.247l.265-2.533a7.175 7.175 0 001.75-.667 5.866 5.866 0 001.455-1.133l2.147.966 1.09-1.733-2.048-1.467a4.291 4.291 0 00.364-1.733c0-.6-.122-1.178-.364-1.733l2.049-1.467-1.09-1.733-2.148.966a5.866 5.866 0 00-1.454-1.133 7.173 7.173 0 00-1.751-.667L11.206 7.4H8.96l-.264 2.533a7.173 7.173 0 00-1.751.667 5.864 5.864 0 00-1.454 1.133l-2.148-.966-1.09 1.733 2.049 1.467a4.291 4.291 0 00-.364 1.733c0 .6.121 1.178.364 1.733L2.252 18.9l1.09 1.733 2.148-.966c.44.466.925.844 1.454 1.133a7.174 7.174 0 001.751.667L8.96 24z" fill="#fff"/></svg>